<?xml version="1.0" encoding="utf-8"?>
<!-- Generator: Adobe Illustrator 28.2.0, SVG Export Plug-In . SVG Version: 6.00 Build 0)  -->
<svg version="1.1" xmlns="http://www.w3.org/2000/svg" xmlns:xlink="http://www.w3.org/1999/xlink" x="0px" y="0px"
	 viewBox="0 0 500 500" style="enable-background:new 0 0 500 500;" xml:space="preserve">
<style type="text/css">
	.st0{clip-path:url(#SVGID_00000054949032454227203710000001670559734349188539_);}
	.st1{fill:#20A240;}
	.st2{fill:#3B572E;}
	.st3{fill:#F8EABB;}
	.st4{fill:#FF002C;}
	.st5{opacity:0.25;}
	.st6{opacity:0.5;fill:#FF002C;}
	.st7{fill:#312414;}
	.st8{clip-path:url(#SVGID_00000167395085724579345170000003000366413339731338_);}
</style>
<g id="BACKGROUND">
</g>
<g id="OBJECTS">
	<g>
		<defs>
			<rect id="SVGID_1_" width="500" height="500"/>
		</defs>
		<clipPath id="SVGID_00000134939920255641585250000009940327955731348650_">
			<use xlink:href="#SVGID_1_"  style="overflow:visible;"/>
		</clipPath>
		<g style="clip-path:url(#SVGID_00000134939920255641585250000009940327955731348650_);">
			<g>
				<path class="st1" d="M176.64,64.6c0.01-0.01,0.02-0.01,0.03-0.02c0.01-0.01,0.02-0.02,0.03-0.03c0.03-0.03,0.06-0.06,0.09-0.11
					c5.64-10.83,18.2-14.09,29.08-17.23c12.53-3.62,25.26-6.5,37.74-10.27c10.52-3.18,21.85-6.64,30.48-13.73
					c8.14-6.69,14.72-16.53,20.25-25.42c0.28-0.44-0.37-0.95-0.73-0.56c-0.06,0.07-0.12,0.14-0.18,0.21
					c-11.71,6.75-26.96,2.72-39.75,2.76c-13.06,0.04-26.24,1.95-38.16,7.5c-22.95,10.68-32.8,33.47-39.74,56.4
					C175.61,64.64,176.28,64.91,176.64,64.6z"/>
				<g>
					<g>
						<g>
							<path class="st2" d="M272.72,7.92c-2.02,0.36-4.09,0.43-6.16,0.38c-2.06-0.08-4.11-0.33-6.15-0.62
								c-4.07-0.62-8.07-1.5-12.12-2.02c-4.04-0.63-8.11-1.01-12.19-1.29c-2.04-0.15-4.08-0.24-6.13-0.3
								c-2.05-0.09-4.1-0.1-6.15-0.12c4.09-0.38,8.21-0.47,12.32-0.35c4.11,0.13,8.21,0.52,12.29,1.07c4.07,0.6,8.1,1.48,12.11,2.25
								C264.55,7.69,268.61,8.22,272.72,7.92z"/>
						</g>
						<g>
							<path class="st2" d="M248.45,14.4c-3.89-0.02-7.78-0.35-11.65-0.67c-3.87-0.32-7.73-0.71-11.6-0.81
								c-3.86-0.18-7.73-0.06-11.55,0.43c-1.91,0.24-3.81,0.59-5.68,1.08c-1.88,0.46-3.71,1.09-5.51,1.83
								c1.7-0.94,3.52-1.68,5.38-2.3c1.86-0.59,3.78-1.04,5.71-1.37c3.87-0.65,7.8-0.77,11.7-0.67c3.9,0.18,7.78,0.56,11.64,1.04
								C240.74,13.45,244.58,13.97,248.45,14.4z"/>
						</g>
						<g>
							<path class="st2" d="M187.98,33.77c1.7-1.61,3.68-2.92,5.79-3.97c2.11-1.06,4.39-1.79,6.71-2.23
								c2.33-0.42,4.69-0.54,7.01-0.58l3.49-0.06c1.17,0.02,2.33,0,3.5,0.04c-1.16,0.18-2.31,0.3-3.47,0.44l-3.48,0.34
								c-2.32,0.22-4.63,0.37-6.87,0.8c-2.25,0.4-4.45,1.08-6.58,1.94C191.96,31.37,189.93,32.49,187.98,33.77z"/>
						</g>
						<g>
							<path class="st2" d="M193.96,50.76c3.19-1.98,6.43-3.87,9.68-5.74c3.25-1.88,6.56-3.63,9.6-5.78c1.54-1.04,3-2.18,4.36-3.43
								c1.35-1.26,2.55-2.67,3.65-4.16c1.1-1.49,2.06-3.09,2.93-4.74c0.9-1.64,1.66-3.35,2.43-5.06c-1.13,3.58-2.62,7.08-4.73,10.24
								c-2.08,3.19-4.98,5.81-8.07,7.97c-3.15,2.12-6.47,3.89-9.79,5.62C200.69,47.42,197.35,49.14,193.96,50.76z"/>
						</g>
						<g>
							<path class="st2" d="M231.36,40.61c3.29-2.08,6.45-4.35,9.4-6.84c2.95-2.5,5.75-5.18,8.26-8.11c2.58-2.88,4.93-6,7.63-8.84
								c1.35-1.41,2.78-2.77,4.32-3.98c1.56-1.18,3.23-2.24,5.04-2.99c-3.42,1.89-6.25,4.58-8.79,7.48
								c-2.55,2.91-4.9,6.01-7.45,8.98c-2.61,2.92-5.44,5.65-8.53,8.05C238.15,36.76,234.85,38.88,231.36,40.61z"/>
						</g>
						<g>
							<path class="st2" d="M270.47,8.24c-1.86,1.69-3.39,3.64-4.74,5.71c-1.34,2.08-2.55,4.25-3.78,6.42
								c-1.25,2.16-2.53,4.34-4.1,6.32l-1.22,1.45l-1.33,1.36l-1.46,1.2c-0.52,0.36-1.05,0.7-1.58,1.03
								c1.95-1.57,3.57-3.46,4.97-5.5c1.39-2.04,2.62-4.19,3.85-6.36c1.25-2.16,2.5-4.35,4.02-6.37l1.18-1.48l1.27-1.4l1.4-1.27
								C269.45,8.97,269.96,8.6,270.47,8.24z"/>
						</g>
						<g>
							<path class="st2" d="M273.01,7.63c-2.04,0.42-4.18-0.09-6.1-0.77c-1.95-0.69-3.8-1.45-5.75-2c-3.87-1.17-7.85-1.87-11.93-2.3
								c4.09-0.37,8.26,0.16,12.22,1.34c1.98,0.58,3.9,1.41,5.74,2.23C269.05,6.92,270.94,7.65,273.01,7.63z"/>
						</g>
						<g>
							<path class="st2" d="M250.34,13.77c-1.17,0.12-2.37,0.01-3.54-0.18c-1.17-0.22-2.31-0.56-3.43-0.93
								c-2.25-0.75-4.38-1.73-6.57-2.44c-2.19-0.74-4.45-1.23-6.75-1.54c-1.15-0.16-2.31-0.25-3.47-0.28
								c-1.16-0.07-2.33-0.03-3.51,0c1.15-0.26,2.32-0.39,3.5-0.49c1.18-0.07,2.37-0.06,3.55,0.01c2.37,0.14,4.72,0.62,6.99,1.36
								c2.26,0.76,4.39,1.77,6.53,2.68C245.78,12.83,247.98,13.58,250.34,13.77z"/>
						</g>
						<g>
							<path class="st2" d="M226.39,21.74c-0.01,1.4,0.51,2.65,0.7,4.08c0.24,1.45-0.11,2.95-0.61,4.25
								c-0.53,1.31-1.09,2.55-1.77,3.78c-0.67,1.22-1.53,2.39-2.61,3.27c0.8-1.14,1.37-2.37,1.91-3.62c0.51-1.25,1.05-2.54,1.54-3.8
								c0.49-1.25,0.83-2.51,0.77-3.83C226.27,24.57,225.99,23.1,226.39,21.74z"/>
						</g>
					</g>
					<g>
						<path class="st3" d="M176.29,64.22c2.41-6.41,5.95-12.4,10.3-17.77c4.39-5.34,9.65-9.96,15.37-13.84
							c5.71-3.92,11.89-7.08,18.2-9.86c6.32-2.75,12.81-5.04,19.32-7.2c6.5-2.18,13.21-3.92,19.82-5.56
							c3.32-0.81,6.62-1.64,9.89-2.54c3.29-0.91,6.49-1.86,9.61-3.12c6.24-2.52,12.23-5.76,17.86-9.54
							c2.82-1.89,5.55-3.92,8.18-6.08c2.6-2.2,5.1-4.52,7.51-6.94C303.66-7.65,292.36,0.86,279.7,6.49c-1.59,0.7-3.2,1.35-4.85,1.92
							c-1.64,0.57-3.28,1.07-4.93,1.57c-3.3,0.98-6.61,1.88-9.91,2.77c-6.63,1.73-13.16,3.44-19.6,5.66
							c-6.48,2.09-12.89,4.34-19.14,6.96c-6.26,2.58-12.32,5.62-18.03,9.21c-5.69,3.62-10.99,7.86-15.55,12.85
							c-2.32,2.46-4.4,5.15-6.31,7.95c-0.89,1.45-1.87,2.84-2.69,4.34L176.29,64.22z"/>
					</g>
				</g>
			</g>
			<g>
				<path class="st2" d="M535.42,503.47c-7.3-1.42-14.4-3.58-21.6-5.39c-10.6-2.66-14.57-10.4-17.05-19.7
					c-0.46-1.74-0.55-3.58-0.73-5.38c-1.19-11.53-2.13-23.09-3.59-34.58c-1.41-11.17-3.95-22.12-8.84-32.37
					c-1.28-2.68-2.48-5.49-5.93-8.06c1.66,6.72,1.75,12.49,2.19,18.24c1.08,14.09,0.44,28.25,1.88,42.33
					c0.97,9.43,3.8,18.04,9.47,25.65c1.41,1.89,3,3.64,4.81,5.82c-6.35-0.85-7.47-6.19-10.35-9.68
					c-6.42-7.79-11.63-16.12-12.06-26.73c-0.45-11.2-0.97-22.42-2-33.57c-1.26-13.59-6.01-26.28-10.91-39.5
					c-1.9,1.95-1.54,3.27-1.52,4.49c0.17,12.31-0.15,24.65,0.68,36.92c1.38,20.44,2.58,41.11,17.74,57.38
					c0.12,0.13-0.12,0.58-0.25,1.12c-11.78-6.96-22.52-15.2-33.06-23.79c-5.45-4.45-7.61-10.01-7.89-16.54
					c-0.21-5.05,0.16-10.13,0.35-15.2c0.44-12.12,1.43-24.23-0.04-36.36c-0.87-7.22-3.82-13.57-7.45-19.79
					c0.05,6.85-0.05,13.5-0.74,20.15c-1.86,17.93-5.78,35.89,1.16,53.91c-8.95-6.75-15-14.46-13.58-25.99
					c0.6-4.85,0.92-9.74,1.4-14.6c1.21-12.24,3.25-24.45,2.17-36.82c-0.59-6.77-3.72-15.36-6.41-18.03
					c0.42,23.8-10.5,46.63-5.22,71.41c-7.75-5.69-8.98-8.67-8.23-18.12c1.05-13.21,4.4-26.06,6.19-39.16
					c2.34-17.1-2.07-32.82-8.85-48.19c-0.53,0.68-0.78,1.36-0.63,1.94c2.78,10.82,1.26,21.61-0.39,32.36
					c-1.67,10.92-4.23,21.68-5.45,32.69c-0.64,5.73,0.6,11.42,0.25,17.25c-2.94-0.43-3.02-3.79-6.56-4.6
					c16.06,23.45,34.05,43.95,54.99,62.79c-33.92-17.05-70.89-18.69-106.2-27.15c0.11,1.01,0.34,1.57,0.75,1.79
					c25.07,13.21,51.61,22.08,79.71,25.79c9.35,1.23,18.64,2.52,27.86,4.49c5.22,1.11,9.08,4.1,13.52,8.79
					c-34.91-11.77-69.56-7.49-104-7.13c0.23,1.02,0.48,1.36,0.8,1.44c31.8,8.47,64.02,14.06,97.04,14.14
					c17.43,0.04,27.53,3.29,37.04,12.34c-19.46-5.13-38.59-4.29-57.75-2.5c-16.78,1.56-33.56,3.01-50.45,2.5
					c-1.07-0.03-2.51-0.76-3.31,0.89c2.13,1.76,4.66,2.2,7.07,2.86c12.12,3.29,24.52,4.72,36.99,5.79
					c11.02,0.95,22.07,1.35,33.07,0.23c11.88-1.21,23.67-3.22,35.61-4.06c10.02-0.71,19.09,1.82,28.67,7.25
					c-11.82-1.91-22.7-3.14-33.43-1.33c-26.6,4.48-53.29,5.07-80.12,3.44c-1.98-0.12-4.03-0.65-6.98,0.54
					c9.63,3.68,18.49,6.21,27.5,8.11c13.86,2.92,27.81,5.18,42.04,2.78c9.83-1.66,19.47-4.15,29.15-6.53
					c13.28-3.26,26.65-6.15,40.36-2.2c1.57,0.45,3.45,0.93,3.97-1.37C538.77,504.49,537.1,503.8,535.42,503.47z"/>
				<path class="st2" d="M462.46,467.68c-5.17-10.38-6.38-21.33-7.17-32.35c-1.02-14.27-2.15-28.54-4.19-42.71
					c-0.95-6.6-2.15-13.14-7.48-18.07c-0.28,4.49,0.09,8.79-0.26,13.13c-1.04,12.81-2.39,25.59-2.77,38.46
					C440.06,443.58,448.63,460.4,462.46,467.68z"/>
				<path class="st2" d="M388.25,362.51c1.93-11.68,3.78-23.37,4.87-35.16c0.51-5.49,0.81-10.98-2.52-15.98
					c-1.09,3.56-1.62,7.09-2.75,10.51c-3.31,10.1-6.87,20.12-9.66,30.4c-3.78,13.94-0.14,29.11,9.57,37.64
					C385.62,380.56,386.76,371.52,388.25,362.51z"/>
				<path class="st2" d="M355.51,394.34c12.72,5.67,25.16,11.97,36.6,20.05c3.01,2.13,6.22,3.98,9.33,5.95
					c-5.68-9.11-12.18-17.38-20.76-23.33c-18.21-12.63-38.57-21.4-58.47-30.93c-3.06-1.47-6-3.53-11.05-4.29
					C325.91,374.51,338.81,386.89,355.51,394.34z"/>
				<path class="st2" d="M350.37,413.4c20.96,15.46,47.03,18.08,70.09,28.31c-29.43-23.55-66.93-31.84-98.38-51.76
					C330.52,399.04,340.5,406.12,350.37,413.4z"/>
				<path class="st2" d="M368.02,368.61c-9.92-28.7-23.02-54.91-32.61-82.54C332.01,316.54,351.48,355.22,368.02,368.61z"/>
				<path class="st2" d="M380.08,389.91c-18.65-25.45-43.92-44.56-64.87-67.81C323.45,343.22,361.66,383.47,380.08,389.91z"/>
				<path class="st2" d="M356.43,276.81c6.23,30.67,6.56,62.35,15.92,92.48C378.13,350.66,368.5,296,356.43,276.81z"/>
			</g>
			<g>
				<path class="st1" d="M257.04,114.16c-6.09,22.98-9.23,46.57-12.12,70.13c-0.04,0.05-0.09,0.1-0.13,0.16
					c-0.46,0.59,0.35,1.43,0.84,0.84c15.73-19.02,40.34-23.76,63.7-26.42c12.54-1.42,25.12-1.76,37.72-1.4
					c12.13,0.34,24.3,1.1,36.42,0.14c20.2-1.6,39.14-9.07,51.81-25.44c12.72-16.43,16.34-38.85,9.49-58.48
					c-7.06-20.24-26.64-37.51-49.09-31.37c-4.91-14.19-15-30.15-30.67-33.61c-8.56-1.89-18.02-0.21-26.42,1.78
					c-8.7,2.06-16.61,5.71-23.86,10.93C284.09,43.49,266.51,78.43,257.04,114.16z"/>
				<g>
					<g>
						<g>
							<path class="st2" d="M395.67,42.3c-1.86,1.81-3.2,4.13-3.89,6.6c-0.57,2.51-0.95,5.09-1.3,7.65
								c-0.69,5.14-1.07,10.31-1.25,15.49c-0.4,10.36-0.19,20.75-0.78,31.14c-0.63,10.36-2.15,20.83-6.01,30.56
								c-1.88,4.87-4.38,9.5-7.43,13.73c-3.08,4.2-6.84,7.91-11.13,10.84c8.41-6.18,14.26-15.2,17.84-24.85
								c1.78-4.84,3.17-9.84,4.04-14.93c0.9-5.09,1.4-10.25,1.69-15.41c0.67-10.34,0.45-20.73,1.02-31.12
								c0.27-5.19,0.74-10.38,1.53-15.52c0.43-2.57,0.87-5.12,1.52-7.66C392.3,46.33,393.74,44.04,395.67,42.3z"/>
						</g>
						<g>
							<path class="st2" d="M324.27,93.04c-6,3.68-12.6,6.35-19.42,8.16c-6.82,1.87-13.9,2.41-20.67,4.07
								c-3.39,0.79-6.7,1.92-9.79,3.51c-3.1,1.57-5.99,3.55-8.67,5.76c-2.68,2.22-5.09,4.78-7.24,7.53
								c-2.18,2.74-4.06,5.71-5.69,8.82c2.89-6.4,7.11-12.26,12.43-16.94c5.31-4.68,11.81-8.07,18.73-9.66
								c6.9-1.6,13.93-2.14,20.71-3.84c3.4-0.82,6.75-1.84,10.03-3.08C317.99,96.17,321.17,94.68,324.27,93.04z"/>
						</g>
						<g>
							<path class="st2" d="M397.62,41.69c-2.01,6.5-2.91,13.26-3.21,20.02c-0.3,6.77-0.09,13.55,0.16,20.34
								c0.17,6.79,0.39,13.6-0.06,20.41l-0.47,5.09l-0.76,5.06l-1.15,4.98l-1.56,4.86c1.99-6.51,2.88-13.27,3.17-20.03
								c0.29-6.77,0.08-13.55-0.17-20.34c-0.17-6.79-0.39-13.61,0.07-20.41l0.48-5.09l0.77-5.05l1.16-4.98L397.62,41.69z"/>
						</g>
						<g>
							<path class="st2" d="M383.15,49.54c-3.65,2.77-8.12,4.29-12.63,4.99c-4.54,0.69-9.17,0.5-13.71,0.02
								c-4.55-0.46-9.04-1.29-13.55-1.8c-4.51-0.55-9.04-0.94-13.58-1.07c-9.07-0.38-18.19,0.17-27.09,1.91
								c-4.44,0.9-8.85,2.05-13.1,3.64c-4.26,1.57-8.38,3.53-12.33,5.79c3.84-2.46,7.93-4.52,12.16-6.25
								c4.25-1.69,8.66-2.94,13.12-3.94l3.36-0.68l3.39-0.51c1.13-0.19,2.27-0.27,3.41-0.41c1.14-0.13,2.27-0.25,3.42-0.31
								c4.56-0.37,9.14-0.39,13.71-0.25c4.57,0.16,9.12,0.59,13.65,1.17c4.54,0.56,9.02,1.37,13.52,1.94
								c4.5,0.57,9.05,0.84,13.55,0.26C374.93,53.52,379.38,52.12,383.15,49.54z"/>
						</g>
						<g>
							<path class="st2" d="M371.91,57.18c-1.21,1.34-2.35,2.75-3.37,4.23c-1,1.5-1.93,3.04-2.73,4.66
								c-1.64,3.21-2.92,6.58-3.97,10.03c-2.14,6.88-3.46,14.01-5.4,21.01c-1.98,6.96-4.72,13.91-9.34,19.62
								c-4.55,5.73-10.25,10.31-15.95,14.75c2.72-2.39,5.48-4.73,8.07-7.25c2.62-2.48,5.1-5.11,7.27-7.97
								c2.16-2.86,4.01-5.96,5.44-9.25c1.46-3.28,2.57-6.71,3.55-10.18c2.01-6.92,3.32-14.07,5.63-20.97
								c1.15-3.45,2.53-6.83,4.27-10.02C367.15,62.66,369.3,59.69,371.91,57.18z"/>
						</g>
						<g>
							<path class="st2" d="M415.03,42.99c2.47,2.33,4.59,5.01,6.45,7.86c1.84,2.87,3.38,5.92,4.67,9.07
								c2.58,6.31,4.06,13.04,4.81,19.8c0.71,6.75,1.14,13.56,0.68,20.36c-0.24,3.39-0.69,6.78-1.42,10.1
								c-0.76,3.31-1.78,6.57-3.17,9.66c2.39-6.35,3.53-13.08,3.83-19.81c0.3-6.74-0.12-13.49-0.9-20.2
								c-0.66-6.71-2.13-13.33-4.53-19.63c-1.19-3.15-2.64-6.2-4.37-9.1C419.36,48.19,417.34,45.47,415.03,42.99z"/>
						</g>
						<g>
							<path class="st2" d="M394.16,43.57c-1.71,0.95-3.69,1.37-5.66,1.36c-1.97,0-3.93-0.39-5.79-1.02
								c-3.74-1.29-7.08-3.38-10.58-5.04c-6.98-3.42-14.23-6.3-21.76-8.19c-7.5-1.98-15.26-2.95-23.02-2.79
								c-7.75,0.15-15.5,1.53-22.83,4.2c3.59-1.53,7.34-2.69,11.16-3.52c3.83-0.79,7.73-1.29,11.65-1.44
								c7.84-0.33,15.7,0.66,23.29,2.59c7.58,1.99,14.91,4.88,21.86,8.47c3.49,1.77,6.77,3.91,10.4,5.27
								c1.8,0.69,3.7,1.14,5.63,1.22C390.43,44.74,392.4,44.43,394.16,43.57z"/>
						</g>
						<g>
							<path class="st2" d="M378.34,52.52c-1.48,1.24-3.06,2.36-4.73,3.34c-1.68,0.96-3.43,1.8-5.23,2.52
								c-3.62,1.4-7.42,2.3-11.26,2.87c-7.7,1.13-15.49,0.68-23.18,0.29c-7.69-0.47-15.4-0.93-23.03-0.03
								c-3.81,0.44-7.58,1.22-11.21,2.47c-1.81,0.63-3.59,1.37-5.3,2.24c-1.7,0.9-3.34,1.91-4.9,3.05c1.49-1.22,3.09-2.32,4.77-3.28
								c1.69-0.94,3.45-1.76,5.26-2.46c3.64-1.36,7.44-2.23,11.28-2.77c7.71-1.07,15.49-0.59,23.18-0.2
								c7.69,0.47,15.4,0.9,23.02-0.05c3.8-0.47,7.57-1.28,11.19-2.57c1.8-0.65,3.57-1.41,5.27-2.3
								C375.17,54.72,376.79,53.68,378.34,52.52z"/>
						</g>
						<g>
							<path class="st2" d="M336.12,83.74c-2.82,2.58-5.68,5.12-8.27,7.91c-2.61,2.76-5,5.76-6.76,9.11
								c-3.63,6.67-5.29,14.19-6.9,21.64c-0.84,3.73-1.69,7.47-2.81,11.14c-1.13,3.67-2.51,7.3-4.48,10.62
								c-1.89,3.37-4.42,6.34-7.16,9.01c-2.78,2.65-5.78,5.03-8.89,7.25c2.97-2.4,5.91-4.85,8.55-7.6c2.65-2.72,5.07-5.69,6.84-9.04
								c3.69-6.64,5.38-14.16,6.99-21.6c0.84-3.73,1.69-7.47,2.8-11.15c1.11-3.67,2.47-7.31,4.41-10.65
								c1.88-3.38,4.37-6.37,7.08-9.08C330.23,88.61,333.15,86.14,336.12,83.74z"/>
						</g>
						<g>
							<path class="st2" d="M319.87,96.72c-4.01,3.72-9.05,6.21-14.23,7.89c-5.19,1.73-10.55,2.82-15.78,4.25
								c-2.63,0.66-5.21,1.46-7.75,2.37c-2.51,0.97-4.99,2.06-7.27,3.48c-2.35,1.33-4.45,3.04-6.35,4.96
								c-1.91,1.91-3.56,4.08-4.97,6.41c2.44-4.87,6.23-9.11,10.91-12.02c4.63-3.03,9.93-4.72,15.18-6.17
								c5.29-1.37,10.61-2.46,15.8-4.02c1.3-0.37,2.57-0.84,3.85-1.28c1.24-0.53,2.53-0.96,3.72-1.61
								C315.47,99.92,317.69,98.35,319.87,96.72z"/>
						</g>
						<g>
							<path class="st2" d="M368.94,59.99c-1.87,2.19-3.79,4.35-5.53,6.63c-1.76,2.26-3.38,4.64-4.66,7.19
								c-1.26,2.56-2.25,5.25-3.2,7.97l-2.87,8.16l-2.95,8.13c-1,2.71-1.99,5.43-3.27,8.04c-1.28,2.6-2.73,5.15-4.62,7.37
								c-1.87,2.23-4.21,4.08-6.86,5.23c2.55-1.36,4.77-3.25,6.48-5.54c1.78-2.24,3.13-4.78,4.3-7.39
								c2.3-5.24,4.02-10.76,5.98-16.18l2.95-8.13c0.99-2.7,1.98-5.45,3.38-8.01c1.39-2.57,3.1-4.93,4.96-7.15
								C364.91,64.11,366.9,62.03,368.94,59.99z"/>
						</g>
						<g>
							<path class="st2" d="M392.57,44.37c-2.51-0.2-4.96-0.96-7.28-1.97c-2.3-1.05-4.47-2.37-6.57-3.77
								c-2.11-1.39-4.1-2.92-6.15-4.37c-2.04-1.46-4.1-2.88-6.2-4.23c-4.17-2.75-8.56-5.18-13.21-6.97
								c-2.32-0.9-4.72-1.62-7.16-2.12c-2.44-0.53-4.94-0.78-7.45-0.82c2.51-0.19,5.04-0.03,7.54,0.34
								c2.49,0.41,4.95,1.06,7.34,1.88c4.79,1.67,9.24,4.14,13.49,6.85c4.22,2.76,8.2,5.86,12.24,8.81
								c2.03,1.46,4.12,2.83,6.34,3.96c1.11,0.56,2.25,1.06,3.43,1.48C390.11,43.84,391.33,44.15,392.57,44.37z"/>
						</g>
						<g>
							<path class="st2" d="M352.92,70.13c-3.04,2.72-6.68,4.74-10.48,6.24c-3.83,1.46-7.84,2.39-11.89,2.99
								c-8.11,1.18-16.3,1.07-24.37,1.85c-8.08,0.67-16.15,2-23.74,4.84c-7.56,2.82-14.65,7.25-19.92,13.49
								c2.46-3.25,5.51-6.05,8.83-8.43c3.35-2.36,7.01-4.25,10.81-5.78c7.64-3.04,15.81-4.38,23.93-5.12
								c8.14-0.7,16.31-0.6,24.35-1.61c4.02-0.5,8-1.34,11.82-2.69C346.1,74.58,349.74,72.67,352.92,70.13z"/>
						</g>
					</g>
					<g>
						<path class="st3" d="M245.21,184.34c6.04-11.23,13-21.95,20.5-32.29c7.55-10.31,15.9-20.01,24.63-29.34
							c17.46-18.69,37.09-35.23,57.53-50.53c10.3-7.56,20.75-14.86,31.5-21.82c5.48-3.41,11.09-6.45,16.75-9.41
							c5.64-2.99,11.36-5.82,17.1-8.61c11.48-5.57,23.05-10.92,34.72-16.06c5.85-2.54,11.72-5.02,17.63-7.42
							c5.91-2.38,11.84-4.74,17.92-6.66c-11.88,4.6-23.44,9.97-34.94,15.42c-11.52,5.41-22.97,10.99-34.3,16.79
							c-5.65,2.92-11.3,5.84-16.89,8.86c-5.59,3.01-11.16,6.1-16.46,9.49c-10.59,6.97-21.03,14.28-31.24,21.84
							c-10.22,7.55-20.15,15.48-29.81,23.73c-9.7,8.2-18.94,16.94-27.85,25.98c-8.88,9.08-17.37,18.56-25.12,28.63
							C259.01,162.93,251.83,173.45,245.21,184.34z"/>
					</g>
				</g>
			</g>
			<g>
				<path class="st1" d="M9.82,383.54c4.29-7.84,8.29-15.95,14.51-22.49c6.12-6.45,14.01-10.46,21.75-14.59
					c12.98-6.93,24.34-15.66,33.36-27.4c8.97-11.66,15.26-25.39,17.98-39.86c3.05-16.23,2.29-36.22,16.98-46.87
					c0.58-0.2,1.16-0.4,1.74-0.6c0.49-0.17,0.45-0.77,0.11-0.97c-0.07-0.15-0.24-0.25-0.43-0.15c-0.11,0.06-0.21,0.12-0.31,0.18
					c-24.4,5.89-51.29,15.63-69.25,33.79c-18.54,18.75-25.37,45.18-29.51,70.43c-2.52,15.35-5.14,30.77-7.26,46.18
					c-0.27,0.56-0.55,1.11-0.82,1.67C8.28,383.63,9.4,384.31,9.82,383.54z"/>
				<g>
					<g>
						<g>
							<path class="st2" d="M20.19,318.39c-0.37,2.66-0.36,5.32-0.12,7.96c0.25,2.64,0.66,5.27,1.1,7.91
								c0.41,2.64,0.85,5.29,1.03,7.99l0.09,2.02l-0.01,2.02l-0.16,2.01c-0.09,0.67-0.2,1.33-0.32,1.99
								c0.01-0.67,0.03-1.34,0.05-2.01l-0.06-2l-0.13-1.99l-0.23-1.98c-0.35-2.64-0.81-5.26-1.25-7.9
								c-0.41-2.64-0.81-5.32-0.88-8.02l0-2.03l0.12-2.02l0.3-2C19.86,319.69,20.02,319.04,20.19,318.39z"/>
						</g>
						<g>
							<path class="st2" d="M24.3,341.11c1.27-1.99,2.98-3.7,4.88-5.13c1.92-1.41,4.05-2.52,6.26-3.42
								c4.43-1.78,9.15-2.63,13.84-3.22c4.7-0.51,9.39-0.89,14-1.7c4.6-0.81,9.16-2.17,13.17-4.67c-1.88,1.43-4,2.53-6.2,3.43
								c-2.21,0.87-4.51,1.5-6.83,2c-4.65,0.98-9.37,1.36-14.03,1.94c-4.66,0.51-9.29,1.36-13.68,2.94
								C31.34,334.85,27.2,337.36,24.3,341.11z"/>
						</g>
						<g>
							<path class="st2" d="M32.07,321.43c0.93-3.82,0.99-7.74,0.79-11.62c-0.2-3.89-0.58-7.79-0.61-11.74
								c0.04-3.95,0.48-7.9,1.4-11.73c0.47-1.91,1.04-3.8,1.71-5.65c0.7-1.84,1.47-3.65,2.4-5.38c-0.72,1.82-1.39,3.66-1.93,5.53
								c-0.57,1.86-1.05,3.75-1.42,5.66c-0.76,3.81-1.19,7.69-1.15,11.57c-0.05,3.88,0.34,7.79,0.38,11.72
								c0.01,1.97-0.04,3.94-0.26,5.9C33.12,317.64,32.74,319.59,32.07,321.43z"/>
						</g>
						<g>
							<path class="st2" d="M38.04,308.24c1.63-2.03,3.67-3.72,5.89-5.12c2.23-1.37,4.65-2.43,7.12-3.29
								c4.97-1.69,10.16-2.49,15.3-3.25c5.14-0.68,10.27-1.48,15.2-2.99c4.91-1.49,9.66-3.87,13.26-7.66
								c-1.63,2.03-3.68,3.72-5.89,5.11c-2.24,1.37-4.65,2.43-7.13,3.28c-4.97,1.69-10.16,2.48-15.3,3.24
								c-5.14,0.68-10.27,1.48-15.2,2.99C46.38,302.07,41.63,304.45,38.04,308.24z"/>
						</g>
						<g>
							<path class="st2" d="M55.81,280.01c0.95-1.25,1.51-2.72,1.84-4.23c0.37-1.5,0.56-3.05,0.85-4.6c0.56-3.1,1.48-6.14,2.69-9.06
								c1.21-2.92,2.71-5.72,4.49-8.32c1.77-2.61,3.82-5.02,6.11-7.16c-0.98,1.23-1.98,2.42-2.87,3.71
								c-0.93,1.25-1.79,2.55-2.6,3.87c-1.6,2.66-3.05,5.41-4.21,8.28c-1.21,2.86-2.13,5.82-2.86,8.84
								c-0.38,1.5-0.65,3.06-1.13,4.57C57.62,277.41,56.94,278.9,55.81,280.01z"/>
						</g>
						<g>
							<path class="st2" d="M64.18,270.25c1.29-0.94,2.71-1.68,4.17-2.33c1.47-0.63,2.99-1.13,4.52-1.58
								c3.07-0.9,6.18-1.49,9.23-2.29c3.06-0.77,6.07-1.7,8.98-2.88c1.45-0.6,2.87-1.28,4.23-2.07c1.38-0.76,2.68-1.65,3.95-2.62
								c-1.11,1.14-2.37,2.13-3.69,3.04c-1.33,0.89-2.73,1.66-4.18,2.36c-2.9,1.37-5.96,2.35-9.04,3.14
								c-3.09,0.78-6.22,1.35-9.29,2.07C70,267.8,66.99,268.75,64.18,270.25z"/>
						</g>
						<g>
							<path class="st2" d="M38.37,308.18c1.61-1.26,3.54-2.08,5.53-2.62c2-0.51,4.06-0.71,6.12-0.75c4.12-0.06,8.17,0.6,12.19,0.62
								c4.03,0.11,8.06-0.4,11.98-1.35c1.96-0.47,3.9-1.08,5.78-1.81c1.9-0.7,3.74-1.57,5.55-2.5c-1.7,1.13-3.51,2.09-5.36,2.96
								c-1.87,0.83-3.8,1.53-5.77,2.1c-3.95,1.13-8.07,1.64-12.19,1.61c-4.12-0.1-8.15-0.75-12.18-0.85
								c-2.01-0.06-4.03,0.06-6.01,0.46C42.03,306.41,40.1,307.11,38.37,308.18z"/>
						</g>
						<g>
							<path class="st2" d="M24.23,341.42c0.95-0.92,2.06-1.66,3.22-2.3c1.18-0.62,2.41-1.11,3.66-1.54
								c2.51-0.85,5.08-1.43,7.68-1.9c2.6-0.45,5.23-0.75,7.86-0.85c1.32-0.04,2.63-0.06,3.95-0.03c1.32,0.06,2.63,0.12,3.93,0.28
								c-2.63,0.12-5.23,0.26-7.83,0.52c-2.59,0.27-5.18,0.6-7.74,1.07c-2.56,0.45-5.12,1-7.63,1.65c-1.25,0.33-2.49,0.74-3.68,1.25
								C26.46,340.04,25.32,340.68,24.23,341.42z"/>
						</g>
						<g>
							<path class="st2" d="M55.1,281.25c0.54-4.08,0.16-8.12,0.21-12.25c0.04-2.06,0.2-4.15,0.68-6.18c0.47-2.03,1.3-4,2.59-5.62
								c-0.95,1.83-1.49,3.79-1.82,5.78c-0.32,1.99-0.42,4.01-0.45,6.04c-0.04,2.03-0.01,4.09-0.14,6.15
								C56.05,277.22,55.76,279.29,55.1,281.25z"/>
						</g>
						<g>
							<path class="st2" d="M64.94,269.72c2.15-0.58,4.38-0.81,6.6-0.92c2.22-0.12,4.44-0.07,6.65-0.07
								c2.21,0.03,4.4,0.01,6.58-0.13l1.64-0.14l1.63-0.23l1.62-0.3c0.53-0.14,1.07-0.27,1.61-0.4c-0.51,0.23-1.02,0.45-1.54,0.65
								l-1.59,0.52l-1.63,0.38l-1.65,0.28c-2.22,0.32-4.46,0.37-6.67,0.36l-6.63-0.17C69.35,269.51,67.15,269.54,64.94,269.72z"/>
						</g>
					</g>
					<g>
						<path class="st3" d="M115.72,231.56c-16.09,7.94-30.7,18.58-43.23,31.22l-2.34,2.38l-2.26,2.45
							c-1.53,1.61-2.96,3.32-4.43,4.99c-2.86,3.41-5.64,6.88-8.22,10.5c-5.27,7.14-9.74,14.86-13.86,22.76
							c-2.07,3.94-4.04,7.94-5.88,12c-1.85,4.05-3.47,8.18-5.14,12.35c-3.36,8.31-6.64,16.64-9.91,24.98
							c-6.43,16.71-12.65,33.52-17.66,50.74c1.9-8.77,4.34-17.42,6.9-26.03c2.65-8.58,5.52-17.09,8.56-25.54
							c3.01-8.46,6.25-16.83,9.46-25.21c1.61-4.17,3.26-8.39,5.11-12.51c1.84-4.12,3.81-8.18,5.89-12.18
							c4.22-7.96,8.77-15.81,14.24-23.05c5.4-7.25,11.36-14.08,17.9-20.31c6.48-6.29,13.6-11.9,21.08-16.91
							c3.78-2.45,7.63-4.78,11.61-6.88C107.49,235.15,111.6,233.32,115.72,231.56z"/>
					</g>
				</g>
			</g>
			<g>
				<path class="st2" d="M-4.58,21.42c6.88,1.86,13.52,4.41,20.28,6.63c9.95,3.27,13.22,10.94,14.95,20.01
					c0.32,1.69,0.28,3.46,0.33,5.19c0.34,11.1,0.46,22.22,1.06,33.31c0.59,10.78,2.26,21.42,6.24,31.55
					c1.04,2.65,1.99,5.42,5.12,8.12c-1.13-6.53-0.81-12.07-0.84-17.59c-0.07-13.54,1.51-27.04,1.1-40.6
					c-0.28-9.08-2.39-17.51-7.3-25.18c-1.22-1.9-2.62-3.69-4.2-5.9c6.01,1.25,6.72,6.43,9.23,9.96c5.6,7.89,10.01,16.21,9.7,26.38
					c-0.33,10.74-0.61,21.5-0.38,32.24c0.28,13.08,3.94,25.54,7.73,38.51c1.95-1.74,1.69-3.02,1.76-4.19
					c0.68-11.78,1.83-23.56,1.88-35.35c0.08-19.63,0.35-39.48-13.03-56.07c-0.1-0.13,0.16-0.55,0.32-1.05
					c10.79,7.46,20.49,16.07,29.97,25.01c4.91,4.63,6.59,10.09,6.41,16.35c-0.14,4.84-0.85,9.67-1.37,14.5
					c-1.26,11.56-3.02,23.07-2.45,34.76c0.34,6.96,2.72,13.23,5.77,19.43c0.42-6.55,0.97-12.9,2.09-19.21
					c3.01-17.01,7.99-33.92,2.59-51.63c8.09,7.07,13.35,14.85,11.2,25.78c-0.9,4.6-1.54,9.24-2.34,13.86
					c-2,11.62-4.78,23.15-4.6,35.05c0.1,6.51,2.5,14.94,4.89,17.68c1.23-22.79,13.23-43.86,9.88-67.92
					c7.02,5.98,7.99,8.9,6.62,17.89c-1.91,12.56-5.99,24.62-8.6,37.02c-3.41,16.19-0.27,31.52,5.16,46.68
					c0.55-0.61,0.84-1.25,0.74-1.81c-1.92-10.54,0.28-20.75,2.59-30.91c2.35-10.32,5.53-20.44,7.45-30.88
					c1-5.44,0.21-10.96,0.94-16.51c2.78,0.61,2.63,3.83,5.96,4.85c-13.75-23.52-29.55-44.35-48.28-63.8
					c31.26,18.62,66.5,22.73,99.68,33.23c-0.04-0.97-0.22-1.52-0.6-1.76c-23.07-14.35-47.83-24.65-74.44-30.12
					c-8.85-1.82-17.65-3.69-26.33-6.2c-4.92-1.42-8.4-4.54-12.32-9.33c32.57,13.64,65.99,11.92,98.94,13.94
					c-0.15-0.99-0.37-1.33-0.66-1.43c-29.82-10.27-60.25-17.83-91.81-20.17c-16.66-1.23-26.1-5.03-34.57-14.34
					c18.26,6.24,36.6,6.75,55.05,6.35c16.15-0.35,32.3-0.58,48.4,1.06c1.02,0.1,2.35,0.9,3.23-0.62c-1.91-1.83-4.3-2.42-6.57-3.22
					c-11.36-3.98-23.12-6.19-34.97-8.07c-10.47-1.66-21.01-2.8-31.6-2.49c-11.44,0.34-22.85,1.45-34.33,1.44
					c-9.63-0.01-18.13-3.05-26.91-8.9c11.17,2.64,21.49,4.55,31.87,3.56c25.74-2.46,51.3-1.19,76.84,2.2
					c1.88,0.25,3.81,0.9,6.71-0.04c-8.96-4.18-17.25-7.2-25.73-9.63c-13.05-3.75-26.23-6.86-40-5.53
					c-9.51,0.92-18.9,2.63-28.32,4.24c-12.92,2.21-25.9,4.06-38.74-0.66c-1.47-0.54-3.23-1.13-3.89,1.04
					C-7.72,20.22-6.17,20.99-4.58,21.42z"/>
				<path class="st2" d="M62.72,60.64c4.24,10.28,4.64,20.83,4.64,31.42c0,13.72,0.11,27.43,1.08,41.12
					c0.46,6.38,1.15,12.71,5.91,17.79c0.57-4.27,0.52-8.41,1.15-12.54c1.87-12.18,4.04-24.3,5.29-36.58
					C82.48,85.21,75.44,68.55,62.72,60.64z"/>
				<path class="st2" d="M126.46,166.27c-2.65,11.03-5.21,22.08-7.07,33.28c-0.86,5.22-1.53,10.44,1.32,15.45
					c1.29-3.33,2.04-6.66,3.35-9.86c3.86-9.43,7.94-18.77,11.32-28.4c4.57-13.07,2.13-27.82-6.57-36.64
					C130.22,149.19,128.5,157.75,126.46,166.27z"/>
				<path class="st2" d="M159.95,138.08c-11.77-6.3-23.24-13.17-33.62-21.68c-2.73-2.24-5.67-4.23-8.52-6.33
					c4.81,9.1,10.46,17.45,18.25,23.73c16.55,13.32,35.41,23.1,53.78,33.57c2.83,1.61,5.49,3.79,10.27,4.86
					C186.89,159.06,175.4,146.34,159.95,138.08z"/>
				<path class="st2" d="M166.16,120.2c-18.98-16.22-43.73-20.5-65.07-31.86c26.52,24.53,61.8,35.02,90.51,56.23
					C184.16,135.3,175.1,127.84,166.16,120.2z"/>
				<path class="st2" d="M146.22,161.83c7.52,28.12,18.25,54.08,25.53,81.15C177.09,214.08,161.12,175.76,146.22,161.83z"/>
				<path class="st2" d="M136.16,140.64c16.08,25.61,38.94,45.61,57.38,69.28C187.1,189.15,153.32,148.05,136.16,140.64z"/>
				<path class="st2" d="M151.02,250.38c-3.86-29.75-2-60.06-8.89-89.51C135.32,178.29,140.79,231.21,151.02,250.38z"/>
			</g>
			<g>
				<path class="st2" d="M478-18.29c1.34,7,1.95,14.09,2.91,21.14c1.41,10.38-4.05,16.68-11.44,22.2c-1.38,1.03-2.99,1.77-4.52,2.57
					c-9.83,5.17-19.78,10.14-29.48,15.54c-9.43,5.25-18.27,11.41-25.64,19.42c-1.93,2.09-4,4.16-5.06,8.15
					c5.38-3.88,10.49-6.01,15.45-8.46c12.15-5.99,24.97-10.48,36.99-16.79c8.04-4.22,14.69-9.82,19.44-17.58
					c1.18-1.93,2.17-3.97,3.46-6.36c1.51,5.95-2.84,8.85-4.92,12.66c-4.64,8.49-10.19,16.1-19.47,20.27
					c-9.8,4.4-19.6,8.86-29.15,13.77c-11.64,5.98-21.23,14.72-31.24,23.81c2.41,0.99,3.46,0.2,4.54-0.25
					c10.89-4.55,21.99-8.67,32.6-13.78c17.69-8.53,35.65-16.97,44.71-36.26c0.07-0.15,0.56-0.1,1.08-0.18
					c-1.99,12.97-5.48,25.46-9.36,37.9c-2.01,6.44-6.19,10.34-11.9,12.92c-4.42,1.99-9.07,3.47-13.64,5.12
					c-10.94,3.93-22.06,7.38-32.33,13.02c-6.11,3.35-10.71,8.24-14.95,13.7c6.07-2.49,12.02-4.77,18.19-6.53
					c16.61-4.74,33.99-7.67,47.55-20.28c-2.81,10.37-7.51,18.5-18.27,21.36c-4.53,1.2-8.99,2.66-13.49,3.97
					c-11.32,3.29-22.9,5.84-33.53,11.21c-5.81,2.94-12.34,8.79-13.75,12.14c21.02-8.87,45.23-7.31,65.39-20.85
					c-2.3,8.93-4.5,11.08-13.18,13.79c-12.13,3.78-24.75,5.39-37.05,8.48c-16.05,4.02-28.45,13.56-39.71,25.08
					c0.79,0.23,1.49,0.21,1.95-0.13c8.64-6.34,18.78-8.84,28.92-11.21c10.31-2.41,20.8-3.98,31.02-6.82
					c5.33-1.48,9.95-4.61,15.26-6.38c0.67,2.77-2.29,4.04-1.75,7.48c15.12-22.66,26.93-45.98,36.22-71.34
					c-3.05,36.26,8.68,69.74,13.76,104.17c0.86-0.46,1.27-0.86,1.32-1.31c2.8-27.02,1.22-53.79-5.51-80.11
					c-2.24-8.76-4.41-17.49-5.95-26.39c-0.87-5.04,0.4-9.54,3-15.17c2,35.26,18.17,64.55,30.78,95.06c0.83-0.57,1.04-0.91,1-1.22
					c-3.82-31.31-10.35-61.97-22.06-91.37c-6.19-15.52-6.9-25.67-2.24-37.36c2.38,19.15,9.96,35.86,18.39,52.27
					c7.38,14.37,14.66,28.78,20.24,43.98c0.35,0.96,0.22,2.5,1.97,2.63c0.81-2.52,0.29-4.93,0.02-7.31
					c-1.39-11.95-4.56-23.5-8.06-34.97c-3.09-10.14-6.68-20.11-11.6-29.5c-5.32-10.14-11.31-19.91-16.32-30.23
					c-4.21-8.66-5.2-17.63-3.79-28.09c2.52,11.2,5.31,21.31,10.75,30.21c13.48,22.06,23.53,45.6,31.66,70.04
					c0.6,1.8,0.86,3.82,2.97,6.02c-0.16-9.88-1.08-18.66-2.61-27.35c-2.35-13.38-5.31-26.59-12.54-38.39
					c-4.99-8.15-10.64-15.84-16.21-23.6c-7.64-10.65-14.99-21.51-16.37-35.12c-0.16-1.56-0.4-3.4-2.64-3.04
					C477.71-21.63,477.69-19.91,478-18.29z"/>
				<path class="st2" d="M472.21,59.39c-7.39,8.31-16.7,13.29-26.22,17.93c-12.33,6.01-24.62,12.1-36.49,18.98
					c-5.53,3.2-10.92,6.6-13.41,13.1c4.09-1.36,7.79-3.22,11.77-4.45c11.77-3.65,23.62-7.01,35.2-11.26
					C458.77,87.91,470.67,74.29,472.21,59.39z"/>
				<path class="st2" d="M405.14,162.94c-11.08,2.45-22.14,4.98-33.02,8.22c-5.07,1.51-10.06,3.2-13.32,7.95
					c3.55-0.3,6.88-1.08,10.33-1.31c10.17-0.66,20.35-1.07,30.49-2.26c13.75-1.61,25.95-10.27,30.07-21.95
					C422.15,158.84,413.69,161.05,405.14,162.94z"/>
				<path class="st2" d="M445.15,180.71c0.51-13.34,1.66-26.66,4.77-39.72c0.82-3.44,1.32-6.95,1.96-10.43
					c-6.08,8.3-11.11,17.04-13.34,26.79c-4.73,20.71-5.27,41.95-6.64,63.05c-0.21,3.25-1,6.6,0.13,11.36
					C438.08,214.12,444.48,198.22,445.15,180.71z"/>
				<path class="st2" d="M463.94,178.47c6.27-24.16-0.71-48.29,0.16-72.45c-10.44,34.58-4.43,70.9-10.93,105.99
					C458.25,201.26,460.99,189.85,463.94,178.47z"/>
				<path class="st2" d="M417.79,178.76c-21.99,19.07-40.63,40.08-61.78,58.48C384.33,229.39,411.78,198.26,417.79,178.76z"/>
				<path class="st2" d="M432.43,160.44c-15.99,25.67-23.96,54.98-37.16,81.92C411.12,227.48,433.28,179.12,432.43,160.44z"/>
				<path class="st2" d="M340.27,221.85c25.06-16.5,53.13-28.09,76.59-47.18C398.21,176.18,353.03,204.25,340.27,221.85z"/>
			</g>
			<g>
				<path class="st1" d="M72.86,29.25c-0.07,0.06-0.11,0.14-0.1,0.23c0,0,0,0.01,0,0.01c0,0.01,0,0.01,0,0.02
					c0,0.04,0.02,0.08,0.05,0.12c5.98,9.07,8.24,20.59,12.44,30.55c4.07,9.64,8.92,19.07,15.4,27.33
					c13.79,17.57,37.15,28.03,59.42,28.34c0.18,0,0.3-0.11,0.35-0.26c0.03-0.05,0.04-0.11,0.04-0.17
					c-0.48-22.03-11.26-45.33-28.73-58.81c-8.53-6.58-18.24-11.44-28.19-15.47c-9.93-4.02-21.29-6.13-30.34-11.94
					C73.09,29.11,72.95,29.16,72.86,29.25z"/>
				<g>
					<g>
						<g>
							<path class="st2" d="M84.53,41.64c2.92,1.52,6,2.62,9.13,3.55c3.14,0.92,6.32,1.71,9.49,2.61c3.16,0.93,6.32,1.99,9.27,3.51
								c1.47,0.76,2.9,1.62,4.24,2.6c1.31,1.01,2.55,2.12,3.6,3.4c-2.4-2.25-5.21-3.97-8.17-5.31c-2.97-1.33-6.07-2.35-9.21-3.24
								c-3.14-0.92-6.33-1.74-9.44-2.84c-1.56-0.55-3.1-1.15-4.6-1.84C87.35,43.36,85.88,42.58,84.53,41.64z"/>
						</g>
						<g>
							<path class="st2" d="M118.55,103.55c-3.01-2.23-5.51-5.2-7.25-8.57c-0.89-1.68-1.57-3.47-2.07-5.31
								c-0.48-1.84-0.73-3.74-0.86-5.63c-0.2-3.79,0.09-7.53,0.15-11.25c0.04-3.71-0.24-7.46-1.63-10.96
								c0.89,1.66,1.45,3.48,1.83,5.33c0.35,1.86,0.5,3.75,0.57,5.63c0.12,3.76-0.14,7.51,0.07,11.2c0.18,3.69,1.03,7.31,2.61,10.66
								c0.78,1.67,1.73,3.27,2.84,4.75C115.92,100.89,117.18,102.27,118.55,103.55z"/>
						</g>
						<g>
							<path class="st2" d="M121.68,77.09c2.76,1.53,5.7,2.6,8.7,3.48c3,0.87,6.06,1.61,9.09,2.51c3.02,0.92,6.03,2.04,8.77,3.69
								c1.36,0.82,2.67,1.76,3.84,2.84c1.15,1.1,2.19,2.32,2.97,3.69c-1.92-2.5-4.45-4.42-7.19-5.86c-2.75-1.44-5.69-2.51-8.68-3.4
								c-2.99-0.91-6.05-1.68-9.04-2.74c-1.49-0.53-2.97-1.1-4.4-1.78C124.33,78.81,122.95,78.04,121.68,77.09z"/>
						</g>
						<g>
							<path class="st2" d="M104.91,60.75c0.72,1.04,1.19,2.25,1.5,3.49c0.28,1.25,0.39,2.54,0.39,3.82c0,2.57-0.54,5.08-0.97,7.54
								c-0.47,2.46-0.79,4.91-0.69,7.39c0.04,1.24,0.18,2.48,0.42,3.7c0.2,1.23,0.54,2.44,0.91,3.65c-0.58-1.12-1.02-2.32-1.39-3.53
								c-0.34-1.23-0.57-2.48-0.71-3.76c-0.29-2.55,0.02-5.14,0.48-7.62c0.46-2.48,1.01-4.92,1.19-7.39c0.09-1.23,0.08-2.47-0.1-3.7
								C105.79,63.1,105.43,61.9,104.91,60.75z"/>
						</g>
						<g>
							<path class="st2" d="M119.36,74.43c2.02,1.02,4.18,1.63,6.38,1.99c2.2,0.35,4.43,0.52,6.67,0.68
								c2.24,0.18,4.51,0.34,6.75,0.79l1.67,0.38l1.64,0.49l1.58,0.65c0.51,0.26,1.01,0.53,1.5,0.81c-0.54-0.18-1.07-0.37-1.59-0.56
								l-1.62-0.43l-1.64-0.34l-1.66-0.24c-2.22-0.26-4.45-0.39-6.7-0.55c-2.25-0.18-4.52-0.38-6.75-0.92l-1.65-0.46l-1.61-0.58
								l-1.53-0.76C120.3,75.06,119.83,74.74,119.36,74.43z"/>
						</g>
						<g>
							<path class="st2" d="M95.15,79.88c-0.81-1.27-1.5-2.64-2.04-4.06c-0.51-1.43-0.93-2.91-1.21-4.41c-0.6-3-0.73-6.05-0.77-9.08
								c-0.01-3.03,0.11-6.05,0.16-9.04c0-1.49-0.09-2.98-0.46-4.42c-0.33-1.44-1-2.81-2.07-3.89c1.23,0.91,2.04,2.3,2.54,3.75
								c0.48,1.47,0.66,3.01,0.75,4.53c0.14,3.04,0.04,6.05,0.08,9.06c0.01,3,0.11,6,0.52,8.96C93.05,74.24,93.86,77.14,95.15,79.88
								z"/>
						</g>
					</g>
					<g>
						<path class="st3" d="M159.84,115.04c-10.01-9.08-19.89-18.3-29.64-27.65c-4.9-4.65-9.73-9.37-14.59-14.06l-14.47-14.18
							l-14.35-14.3c-4.74-4.81-9.53-9.57-14.23-14.42c-9.47-9.63-18.8-19.41-28-29.32c10.02,9.08,19.9,18.3,29.64,27.65
							c4.9,4.65,9.72,9.38,14.59,14.06l14.46,14.19l14.35,14.3c4.75,4.81,9.53,9.57,14.23,14.42
							C141.31,95.37,150.64,105.14,159.84,115.04z"/>
					</g>
				</g>
			</g>
			<g>
				<g>
					<g>
						<path class="st4" d="M381.13,252.7c-0.75,0.14-5.68,1.14-6.45,1.28c0.28-0.05,0.61-0.1,0.91-0.14
							c-7.1,1.65-15.14,4.62-17.66,11.72c-0.03,0.09,0.11,0.15,0.14,0.06c0-0.01,0.01-0.02,0.01-0.02
							c-0.27,4.17,0.69,8.08,2.89,11.64c-8.7,2.58-15.26,8.65-19.94,16.41c-0.01-0.02,0-0.04-0.02-0.05
							c-12.97-3.11-22.23-0.78-28.51,4.76c-0.02,0.1-0.07,0.19-0.18,0.25c-0.08,0.04-0.16,0.1-0.24,0.15
							c-0.49,0.45-0.95,0.94-1.4,1.43c-0.3,0.49-0.6,0.98-0.89,1.48c-1,1.7-1.98,3.42-2.81,5.21c-1.64,3.56-2.8,7.33-3.65,11.16
							c-0.01,0.03-0.03,0.04-0.04,0.06c-0.4,3.05-0.54,6.12-0.64,9.19c-0.06,1.8-0.2,3.6-0.29,5.4c-0.08,1.61-0.14,3.26,0.06,4.86
							c0.16,1.3,0.45,2.58,0.57,3.88c0.08,0.81,0.11,1.68-0.07,2.49c1.5,8.12,4.17,15.85,7.61,21.97c-0.24,0.75-0.44,1.52-0.6,2.32
							c-1.5,7.65,2.19,15.55,6.15,21.83c10.19,16.2,28.34,22.16,46.18,26.16c1.89,1.38,3.92,2.62,6.13,3.67
							c12.01,5.7,25.62,4.04,37.83-0.11c12.31-4.19,27.02-9.93,37.44-18.59c10.02-7.96,18.84-17.3,23.34-29.4
							c5.43-14.57,12.43-31.6,8.5-47.35c-0.83-3.3-1.98-6.14-3.36-8.66c0.85-15.16-8.27-32.65-20.08-44.08
							c0.01,0.01,0.04,0.03,0.05,0.04c-0.01-0.01-0.04-0.04-0.06-0.05c-0.7-0.67-1.4-1.34-2.12-1.97c0.6,0.54,1.18,1.11,1.77,1.68
							c-1.26-1.04-5.32-4.42-7.14-5.87c0.01,0.01,0.04,0.02,0.04,0.02c-0.01-0.01-0.04-0.02-0.05-0.03
							c-0.05-0.04-0.12-0.09-0.16-0.13c0.05,0.04,0.11,0.09,0.16,0.13c-1.14-0.64-4.8-2.87-8.35-4.46c0.28,0.11,0.56,0.18,0.84,0.3
							c-1-0.44-2.01-0.83-3.04-1.18c-0.19-0.07-0.39-0.15-0.57-0.21c0.07,0.02,0.21,0.09,0.3,0.12c-4.49-1.52-9.17-2.07-13.82-0.9
							c-0.1-0.28-0.25-0.61-0.35-0.67C407.63,251.59,394.62,250.25,381.13,252.7z"/>
						<path class="st4" d="M444.61,265.55C444.61,265.56,444.62,265.56,444.61,265.55c0.19,0.14,0.41,0.31,0.68,0.52
							c-0.27-0.21-0.48-0.38-0.66-0.52c-0.08-0.06-0.17-0.13-0.23-0.17C444.45,265.43,444.54,265.5,444.61,265.55
							C444.62,265.56,444.61,265.56,444.61,265.55z"/>
						<path class="st4" d="M441.29,263.47c-0.03-0.02-0.06-0.03-0.08-0.04c0.05,0.03,0.11,0.06,0.16,0.09
							C441.34,263.5,441.32,263.48,441.29,263.47z"/>
					</g>
					<g class="st5">
						<path class="st4" d="M444.61,265.55C444.61,265.56,444.62,265.56,444.61,265.55c0.19,0.14,0.41,0.31,0.68,0.52
							c-0.27-0.21-0.48-0.38-0.66-0.52c-0.08-0.06-0.17-0.13-0.23-0.17C444.45,265.43,444.54,265.5,444.61,265.55
							C444.62,265.56,444.61,265.56,444.61,265.55z"/>
						<path class="st4" d="M441.29,263.47c-0.03-0.02-0.06-0.03-0.08-0.04c0.05,0.03,0.11,0.06,0.16,0.09
							C441.34,263.5,441.32,263.48,441.29,263.47z"/>
					</g>
					<path class="st6" d="M341.38,296.79c0,0-19.82-6.81-22.91,3.93c-3.09,10.74,8.03,35.1,14,39.8
						c5.97,4.7,79.79,54.14,79.79,54.14s16.11,4.32,24.72,3.8c0,0-4.2-11.44-7.04-16.01c-2.84-4.57-59.1-106.35-59.1-106.35
						s-8.57-15.51-12.89-10.55c0,0-0.52,8.66,4.1,13.75C366.65,284.38,341.38,296.79,341.38,296.79z"/>
					<path class="st3" d="M366.16,372.18c0,0,34.91,22.97,48.61,22.63c13.7-0.34,16.87-7.39,16.43-10.67
						c-0.27-2.02-21.8-46.21-21.8-46.21L366.16,372.18z"/>
					<path class="st4" d="M341.04,293.63c0,0-13.96-3.83-22.15,1.36c-8.19,5.18,1.71,37.85,9.35,45.48
						c7.64,7.63,39.91,33.2,39.91,33.2l-33.41-32.32c0,0-14.4-20.22-14.42-35.42c-0.02-14.14,18.85-8.55,18.85-8.55L341.04,293.63z"
						/>
					<path class="st6" d="M341.04,293.63c0,0-13.96-3.83-22.15,1.36c-8.19,5.18,1.71,37.85,9.35,45.48
						c7.64,7.63,39.91,33.2,39.91,33.2l-33.41-32.32c0,0-14.4-20.22-14.42-35.42c-0.02-14.14,18.85-8.55,18.85-8.55L341.04,293.63z"
						/>
					<path class="st7" d="M332.11,337.77c0,0-3.33-25.45,9.94-45.48c13.27-20.03,28.78-16.19,28.78-16.19s26.59,35.04,39.42,63.7
						c0,0-6.59,3.78-6.69,6.93c-0.1,3.16,0.7,8.43-5.27,10.62c-5.97,2.18-10.39,2.27-13.29,10.39c0,0-12.14-2.2-18.84,4.44
						C366.16,372.18,338.63,347.03,332.11,337.77z"/>
				</g>
				<g>
					<g>
						<path class="st7" d="M340.97,293.7c-1.94-0.85-4.06-1.17-6.15-1.36c-2.1-0.16-4.21-0.14-6.3,0.09
							c-4.16,0.45-8.48,0.96-12.03,3.12c-3.55,2.16-5.6,6.06-7.65,9.64c-1.95,3.71-3.32,7.7-4.36,11.75
							c-1.05,4.06-1.56,8.25-1.82,12.43c-0.21,4.2,0.05,8.4,0.5,12.58c0.56,4.17,1.44,8.29,2.68,12.32
							c1.28,4.02,2.92,7.91,4.9,11.65c-2.18-3.63-3.93-7.51-5.37-11.5c-1.34-4.03-2.31-8.17-2.97-12.37
							c-0.57-4.21-0.81-8.47-0.64-12.73c0.23-4.25,0.72-8.49,1.76-12.64c1.09-4.12,2.52-8.16,4.53-11.94
							c0.48-0.95,1.08-1.84,1.62-2.76c0.54-0.92,1.11-1.82,1.75-2.68c0.64-0.86,1.32-1.7,2.1-2.46c0.78-0.76,1.66-1.42,2.59-1.97
							c3.81-2.2,8.2-2.6,12.38-2.95c2.13-0.16,4.26-0.11,6.37,0.13C336.95,292.33,339.07,292.76,340.97,293.7z"/>
					</g>
					<g>
						<path class="st7" d="M325.34,335.85c0.54,2.33,0.39,4.8-0.29,7.1c-0.66,2.31-1.75,4.48-3.01,6.52
							c-2.56,4.07-5.9,7.54-8.4,11.56c-1.25,2-2.29,4.12-2.88,6.37c-0.59,2.25-0.66,4.61-0.36,6.93c0.64,4.65,2.62,9.04,4.91,13.15
							c2.3,4.12,5.14,7.96,8.52,11.26c1.69,1.65,3.52,3.15,5.46,4.49c1.95,1.33,4.02,2.47,6.15,3.52c4.27,2.07,8.72,3.79,13.23,5.31
							c4.5,1.55,9.08,2.88,13.73,3.97c-9.36-1.84-18.56-4.63-27.28-8.59c-4.37-1.97-8.46-4.69-11.91-8.05
							c-3.47-3.35-6.39-7.24-8.75-11.42c-2.3-4.2-4.3-8.68-4.94-13.53c-0.3-2.41-0.22-4.9,0.42-7.26c0.32-1.18,0.75-2.32,1.27-3.42
							c0.53-1.09,1.14-2.14,1.8-3.15c2.63-4.04,6.03-7.45,8.64-11.41c1.31-1.97,2.45-4.07,3.17-6.33
							C325.53,340.63,325.77,338.2,325.34,335.85z"/>
					</g>
					<g>
						<path class="st7" d="M325.51,337.19c4.02,6.35,6.66,13.46,9,20.57c2.31,7.14,4.21,14.41,6.65,21.47
							c2.47,7.05,5.54,13.9,9.26,20.37c1.87,3.23,3.85,6.41,6.03,9.42c1.1,1.5,2.27,2.94,3.56,4.25c1.33,1.27,2.71,2.51,4.26,3.51
							c6.1,4.2,13.62,6.01,21.01,6.14c7.44,0.1,14.8-1.66,21.83-4.13c7.06-2.47,13.81-5.74,20.62-8.87
							c3.41-1.56,6.79-3.17,10.04-5.02c3.22-1.88,6.42-3.93,8.93-6.73c-2.45,2.86-5.62,4.99-8.81,6.94
							c-3.23,1.92-6.58,3.61-9.96,5.25c-6.76,3.22-13.49,6.58-20.57,9.15c-7.05,2.6-14.51,4.36-22.1,4.31
							c-7.53-0.1-15.24-1.91-21.57-6.22c-1.6-1.04-3.02-2.33-4.39-3.65c-1.34-1.36-2.53-2.84-3.64-4.37
							c-2.2-3.07-4.18-6.27-6.05-9.53c-3.71-6.54-6.83-13.43-9.2-20.57c-2.37-7.14-4.19-14.42-6.39-21.57
							C331.87,350.76,329.39,343.63,325.51,337.19z"/>
					</g>
					<g>
						<path class="st7" d="M381.69,291.49c3.23,2.48,7.02,4.15,10.97,5.05c3.95,0.92,8.03,1.11,12.08,1.13
							c4.06,0.02,8.12-0.16,12.19-0.15c4.07,0,8.14,0.12,12.21,0.36c4.07,0.24,8.12,0.57,12.17,1.1c4.04,0.53,8.08,1.3,11.99,2.55
							c3.9,1.26,7.67,3.02,11.03,5.43c3.36,2.39,6.25,5.5,8.27,9.11c2.03,3.61,3.24,7.62,3.84,11.69c0.58,4.07,0.53,8.22,0.02,12.28
							c-1.02,8.15-3.72,15.92-6.42,23.57c-1.36,3.83-2.67,7.67-4.08,11.5c-0.73,1.9-1.54,3.8-2.63,5.55
							c-1.09,1.75-2.37,3.35-3.68,4.9c-2.67,3.08-5.51,6-8.45,8.81c-2.95,2.8-5.95,5.55-9.2,8c3.2-2.51,6.14-5.32,9.03-8.18
							c2.88-2.86,5.66-5.83,8.25-8.95c1.28-1.57,2.54-3.17,3.58-4.88c1.04-1.72,1.82-3.59,2.52-5.48c1.36-3.81,2.63-7.69,3.95-11.53
							c2.59-7.69,5.28-15.4,6.24-23.43c0.49-4,0.52-8.06-0.06-12.03c-0.59-3.97-1.8-7.86-3.76-11.34c-1.93-3.5-4.7-6.5-7.95-8.83
							c-3.25-2.35-6.92-4.09-10.75-5.34c-7.69-2.48-15.86-3.11-23.93-3.75c-4.05-0.28-8.1-0.44-12.16-0.49
							c-4.06-0.06-8.12,0.08-12.2,0c-4.07-0.1-8.17-0.38-12.13-1.38C388.64,295.79,384.86,294.04,381.69,291.49z"/>
					</g>
					<g>
						<path class="st7" d="M381.04,290.53c1.39-0.38,2.74-0.88,4.06-1.45c1.32-0.57,2.62-1.2,3.81-2c2.4-1.57,4.5-3.56,6.41-5.7
							c3.84-4.27,7.02-9.11,10.94-13.39c1.95-2.15,4.1-4.14,6.52-5.79c2.42-1.64,5.1-2.94,7.99-3.59c2.88-0.64,5.89-0.63,8.77-0.08
							c2.89,0.52,5.66,1.53,8.29,2.77c2.63,1.26,5.12,2.76,7.53,4.38c2.4,1.62,4.74,3.35,6.87,5.35c1.07,1,2.04,2.08,3.03,3.11
							c0.99,1.04,1.98,2.09,2.96,3.16c1.94,2.14,3.84,4.35,5.4,6.82c2.93,5.03,5.16,10.42,6.57,16.03c0.69,2.81,1.19,5.66,1.52,8.53
							c0.16,1.43,0.28,2.87,0.36,4.31l0.09,2.16c0.02,0.72-0.01,1.46-0.26,2.14c0.22-0.69,0.22-1.42,0.18-2.13l-0.16-2.15
							c-0.13-1.43-0.28-2.86-0.48-4.29c-0.4-2.85-0.97-5.67-1.73-8.44c-1.49-5.54-3.79-10.87-6.74-15.75
							c-1.56-2.37-3.46-4.53-5.39-6.65c-0.97-1.06-1.96-2.1-2.96-3.13c-1.01-1.04-1.97-2.1-3.01-3.06c-2.09-1.94-4.4-3.63-6.78-5.22
							c-2.39-1.58-4.85-3.05-7.42-4.27c-2.57-1.22-5.26-2.21-8.04-2.73c-2.77-0.54-5.65-0.56-8.4,0.03c-2.75,0.6-5.35,1.84-7.7,3.42
							c-2.35,1.59-4.48,3.51-6.44,5.59c-3.94,4.16-7.2,8.96-11.14,13.2c-1.98,2.1-4.16,4.06-6.62,5.59
							C386.57,288.82,383.83,289.83,381.04,290.53z"/>
					</g>
					<g>
						<path class="st7" d="M358.23,265.38c0.18,2.12,0.43,4.14,0.93,6.12c0.48,1.99,1.2,3.89,2.04,5.85
							c-1.5-1.53-2.48-3.53-3.01-5.61C357.69,269.66,357.62,267.43,358.23,265.38z"/>
					</g>
					<g>
						<path class="st7" d="M368.95,273.59c-0.91-0.89-1.77-1.83-2.56-2.81c-0.81-0.97-1.57-1.98-2.34-2.95
							c-0.77-0.97-1.54-1.95-2.48-2.61c-0.48-0.29-1.01-0.45-1.58-0.4c-0.59,0.01-1.16,0.32-1.75,0.55
							c0.47-0.42,0.99-0.83,1.65-1.03c0.66-0.2,1.43-0.12,2.06,0.19c1.24,0.66,2.07,1.69,2.88,2.67
							C366.38,269.23,367.73,271.34,368.95,273.59z"/>
					</g>
					<g>
						<path class="st7" d="M437.24,398.41c-4.74-10.91-9.56-21.77-14.63-32.52c-5.07-10.75-10.33-21.41-15.96-31.87
							c-5.56-10.5-11.5-20.79-17.77-30.88l-4.77-7.53l-4.92-7.43l-5.04-7.35l-5.19-7.25l5.4,7.1l5.23,7.23l5.05,7.36l4.89,7.46
							c6.42,10.02,12.36,20.34,18,30.82c5.57,10.52,10.85,21.19,15.78,32.02C428.23,376.4,432.88,387.35,437.24,398.41z"/>
					</g>
					<g>
						<path class="st7" d="M358.01,265.59c0.5-2.78,2.26-5.32,4.67-6.9c2.41-1.52,5.04-2.65,7.72-3.57
							c5.38-1.77,10.94-2.98,16.58-3.62c5.64-0.55,11.39-0.45,16.96,0.69c2.78,0.57,5.51,1.38,8.14,2.44
							c2.61,1.09,5.13,2.42,7.44,4.04c-2.43-1.43-4.97-2.65-7.61-3.58c-2.63-0.96-5.35-1.68-8.11-2.15
							c-5.51-0.97-11.15-1.07-16.71-0.45c-5.57,0.54-11.08,1.76-16.44,3.35c-2.67,0.82-5.29,1.85-7.7,3.26
							C360.55,260.48,358.73,262.86,358.01,265.59z"/>
					</g>
					<g>
						<path class="st7" d="M324.18,292.12c-1.76,0.66-3.48,1.5-4.95,2.67c-0.73,0.59-1.39,1.26-1.9,2.05
							c-0.52,0.78-0.78,1.68-0.94,2.61c-0.68,3.71-0.07,7.49,0.48,11.2c1.16,7.43,3.09,14.8,6.51,21.49
							c1.69,3.35,3.8,6.47,6.24,9.29c2.45,2.83,5.33,5.26,8.18,7.73c5.71,4.93,11.5,9.77,17.46,14.38
							c5.94,4.64,12.07,9.04,18.42,13.08c6.36,4.03,12.99,7.63,19.8,10.84c3.4,1.61,6.88,3.07,10.4,4.39
							c3.52,1.33,7.11,2.49,10.75,3.44c7.27,1.98,14.78,3.08,22.33,3.16c-7.55,0.08-15.11-0.86-22.46-2.69
							c-3.68-0.9-7.29-2.03-10.85-3.32c-3.56-1.28-7.07-2.71-10.51-4.29c-6.89-3.12-13.54-6.77-19.97-10.77
							c-6.4-4.03-12.58-8.42-18.55-13.06c-5.96-4.65-11.75-9.52-17.44-14.48c-2.84-2.48-5.74-4.95-8.23-7.85
							c-2.49-2.89-4.6-6.1-6.27-9.51c-3.38-6.83-5.24-14.28-6.3-21.76c-0.47-3.73-1.01-7.57-0.24-11.32
							c0.18-0.93,0.47-1.87,1.02-2.66c0.54-0.79,1.22-1.47,1.98-2.04C320.67,293.55,322.41,292.75,324.18,292.12z"/>
					</g>
					<g>
						<path class="st7" d="M339.17,297.39c-2.4-0.41-4.82-0.75-7.25-0.84c-2.41-0.08-4.91,0.15-7.04,1.21
							c-2.1,1.11-3.35,3.39-3.79,5.69c-0.44,2.34-0.25,4.78,0.14,7.16c1.49,9.59,5.57,18.65,11.11,26.59
							c2.72,4.02,5.87,7.71,9.22,11.25c3.33,3.55,6.82,6.96,10.33,10.33c3.52,3.36,7.13,6.64,10.84,9.8
							c3.7,3.17,7.5,6.23,11.56,8.94c-8.31-5.15-15.71-11.62-22.93-18.19c-3.6-3.3-7.08-6.74-10.46-10.27
							c-3.38-3.52-6.62-7.25-9.38-11.31c-5.53-8.08-9.69-17.28-11.04-27.05c-0.35-2.42-0.51-4.94,0-7.4c0.51-2.42,1.87-4.85,4.19-6
							c2.31-1.05,4.84-1.19,7.27-1.04C334.37,296.44,336.78,296.87,339.17,297.39z"/>
					</g>
					<g>
						<path class="st7" d="M412.22,394.42c2.03,0.3,4.05,0.3,6.02,0.01c0.98-0.16,1.96-0.35,2.91-0.65
							c0.95-0.28,1.88-0.64,2.77-1.07c1.78-0.84,3.47-1.99,4.82-3.38c0.66-0.73,1.26-1.53,1.73-2.4c0.46-0.87,0.83-1.84,0.69-2.86
							c0.37,0.99,0.09,2.09-0.25,3.06c-0.39,0.97-0.92,1.88-1.58,2.71c-1.37,1.64-3.1,2.85-4.98,3.77c-1.89,0.9-3.94,1.45-6.02,1.6
							C416.25,395.37,414.16,395.09,412.22,394.42z"/>
					</g>
					<g>
						<path class="st7" d="M366.24,372.17c0.45-0.86,1.14-1.57,1.85-2.25c0.73-0.64,1.54-1.27,2.55-1.55
							c1.85-0.58,3.76-0.98,5.69-1.2c3.86-0.43,7.82-0.16,11.51,0.96c-3.84-0.34-7.63-0.41-11.4,0.03c-1.88,0.2-3.75,0.54-5.6,0.95
							c-0.87,0.17-1.68,0.66-2.46,1.19C367.61,370.83,366.87,371.45,366.24,372.17z"/>
					</g>
					<g>
						<path class="st7" d="M385,367.74c0.35-1.87,1.28-3.63,2.55-5.09c1.26-1.47,2.83-2.66,4.54-3.56
							c3.44-1.79,7.26-2.49,11.02-2.72c-3.64,1.01-7.3,1.88-10.55,3.61c-1.62,0.85-3.13,1.92-4.43,3.21
							C386.83,364.48,385.72,365.99,385,367.74z"/>
					</g>
					<g>
						<path class="st7" d="M399.98,356.53c1.1-1.14,1.95-2.31,2.55-3.63c0.62-1.32,0.97-2.72,1.13-4.3
							c0.64,1.48,0.45,3.25-0.22,4.72C402.75,354.79,401.52,356.06,399.98,356.53z"/>
					</g>
					<g>
						<path class="st7" d="M405.97,352.48c-1.03-0.75-1.91-1.8-2.37-3.07c-0.24-0.63-0.33-1.33-0.31-2.03c0.05-0.7,0.25-1.38,0.55-2
							c0.62-1.23,1.56-2.18,2.5-3.03c0.94-0.86,1.92-1.67,2.94-2.43c-0.75,1.04-1.55,2.03-2.39,2.98c-0.82,0.95-1.65,1.88-2.16,2.93
							c-0.54,1.03-0.66,2.2-0.39,3.36C404.62,350.34,405.21,351.45,405.97,352.48z"/>
					</g>
					<g>
						<path class="st3" d="M369.79,275.96c-3.37,0.04-6.74,0.61-9.85,1.86c-3.14,1.17-6.05,2.89-8.68,4.95
							c-2.63,2.06-4.97,4.48-6.99,7.13c-1.98,2.69-3.7,5.57-5.09,8.62c-2.89,6.05-4.62,12.6-5.97,19.18
							c-0.34,1.65-0.64,3.3-0.86,4.96c-0.22,1.66-0.31,3.34-0.4,5.02c-0.2,3.36-0.2,6.74,0.17,10.1c-0.6-3.33-0.7-6.73-0.66-10.11
							c0.04-1.69,0.09-3.38,0.26-5.08c0.17-1.69,0.44-3.37,0.73-5.04c1.21-6.65,2.95-13.27,5.82-19.46
							c1.44-3.08,3.22-6.02,5.27-8.74c2.1-2.69,4.49-5.18,7.25-7.19c2.74-2.03,5.75-3.71,8.98-4.8
							C362.99,276.25,366.42,275.77,369.79,275.96z"/>
					</g>
					<g>
						<path class="st7" d="M381.73,290.67c3.18,0.75,6.45,0.9,9.68,0.65c3.23-0.22,6.44-0.8,9.61-1.5c6.35-1.4,12.62-3.2,19.01-4.58
							c6.39-1.3,12.99-2.17,19.55-1.49c3.27,0.35,6.5,1.09,9.57,2.23c1.53,0.58,3.03,1.25,4.48,2.02c1.44,0.77,2.82,1.7,3.92,2.91
							c-1.18-1.14-2.59-1.97-4.04-2.68c-1.47-0.69-2.98-1.29-4.52-1.8c-3.07-1.04-6.26-1.67-9.48-1.93
							c-6.45-0.52-12.94,0.33-19.28,1.7c-6.37,1.29-12.64,3.11-19.06,4.35c-3.21,0.62-6.46,1.12-9.74,1.24
							C388.17,291.9,384.86,291.64,381.73,290.67z"/>
					</g>
					<g>
						<path class="st7" d="M326.31,337.85c1.51,1.1,2.75,2.54,3.86,4.04c1.11,1.5,2.17,3.04,3.23,4.57c2.1,3.08,4.12,6.22,6.09,9.39
							c3.95,6.33,7.45,12.95,10.98,19.5c3.49,6.57,7.17,13.06,11.74,18.9c2.29,2.91,4.79,5.67,7.58,8.11
							c2.76,2.49,5.84,4.6,9.14,6.34c-3.4-1.53-6.57-3.59-9.46-5.97c-2.89-2.39-5.48-5.12-7.87-8.01
							c-4.75-5.81-8.46-12.37-12.02-18.91c-1.75-3.29-3.46-6.6-5.24-9.87c-1.77-3.27-3.64-6.49-5.51-9.71
							c-1.88-3.21-3.83-6.38-5.84-9.52c-1-1.57-1.99-3.15-3.04-4.69C328.91,340.51,327.76,339.03,326.31,337.85z"/>
					</g>
					<g>
						<path class="st7" d="M325.69,337.27c0.56,2.33,0.88,4.71,1.12,7.1c0.2,2.39,0.28,4.8,0.28,7.2c0.01,4.8-0.35,9.58-0.51,14.36
							c-0.24,4.77-0.28,9.54,0.15,14.28c0.42,4.73,1.4,9.44,3.23,13.87c-1.11-2.12-1.94-4.39-2.61-6.7
							c-0.64-2.32-1.08-4.7-1.38-7.08c-0.59-4.78-0.55-9.61-0.38-14.4c0.25-4.79,0.59-9.56,0.75-14.32
							C326.48,346.79,326.38,342.01,325.69,337.27z"/>
					</g>
					<g>
						<path class="st7" d="M314.66,318.39c-1.72,3.74-3.04,7.63-3.95,11.61c-0.91,3.98-1.49,8.04-1.66,12.12
							c-0.25,4.08-0.1,8.17,0.23,12.25c0.16,2.04,0.39,4.08,0.67,6.11c0.25,2.04,0.59,4.06,0.91,6.1c-0.54-1.99-0.98-4-1.39-6.02
							c-0.38-2.03-0.7-4.06-0.95-6.11c-0.5-4.1-0.64-8.25-0.46-12.38c0.25-4.13,0.83-8.25,1.91-12.25c0.55-2,1.2-3.96,1.96-5.88
							C312.73,322.03,313.61,320.16,314.66,318.39z"/>
					</g>
					<g>
						<path class="st7" d="M381.9,291.49c2.13,3.37,4.58,6.51,7.35,9.35c2.73,2.88,5.72,5.49,8.84,7.95
							c6.23,4.92,12.94,9.19,19.54,13.66c6.55,4.52,13.04,9.29,18.53,15.13c2.74,2.91,5.28,6,7.71,9.16
							c2.39,3.19,4.71,6.43,6.97,9.7c-4.87-6.3-9.67-12.67-15.23-18.33c-5.54-5.67-11.96-10.4-18.54-14.84
							c-6.53-4.52-13.29-8.8-19.46-13.89c-3.08-2.54-6.04-5.24-8.71-8.21C386.22,298.2,383.83,294.98,381.9,291.49z"/>
					</g>
				</g>
			</g>
			<g>
				<path class="st1" d="M373.55,352.8c-18,4.73-35.98,11.46-52.96,19.04c-16.92,7.55-33.18,16.88-47.15,29.14
					c-25.65,22.51-40.46,53.33-44.99,86.88c-2.63,19.51-3.12,39.31-7.45,58.56c-0.66,1.14-1.32,2.29-1.94,3.46
					c-0.41,0.77,0.85,1.25,1.26,0.49c0.06-0.11,0.12-0.21,0.18-0.32c0.21,0.08,0.47,0.03,0.54-0.22c0.12-0.47,0.24-0.94,0.36-1.41
					c7.98-14.23,19.37-26.04,32.17-36.09c13.61-10.69,29.27-18.35,42.86-29c12.95-10.14,25.24-23.77,33.72-37.87
					c8.53-14.17,11.68-30.45,16.05-46.19c4.93-17.76,12.31-34.51,27.9-45.31c0.2-0.14,0.15-0.41,0.01-0.55
					C374.16,353.09,373.93,352.7,373.55,352.8z"/>
				<g>
					<g>
						<g>
							<path class="st2" d="M238.31,451.61c-2.15,4.9-3.19,10.17-3.58,15.45c-0.38,5.29-0.21,10.62,0.15,15.93
								c0.28,5.32,0.7,10.66,0.59,16.02c-0.06,2.68-0.23,5.36-0.6,8.01c-0.4,2.65-0.95,5.28-1.81,7.81
								c1.31-5.18,1.7-10.52,1.64-15.83c-0.05-5.32-0.46-10.63-0.82-15.96c-0.27-5.33-0.46-10.71,0.09-16.06
								c0.28-2.67,0.73-5.33,1.42-7.92C236.11,456.49,237.04,453.96,238.31,451.61z"/>
						</g>
						<g>
							<path class="st2" d="M241.41,494.59c2.73-2.97,6.51-4.66,10.11-6.32c3.64-1.65,7.32-3.2,11.01-4.72
								c7.39-3.02,14.87-5.81,22.21-8.9c7.37-3.02,14.61-6.35,21.55-10.24c3.47-1.94,6.85-4.05,10.1-6.35
								c3.27-2.27,6.38-4.77,9.35-7.44c-2.81,2.84-5.87,5.42-9.06,7.84c-3.21,2.39-6.56,4.59-10,6.62
								c-6.91,4.05-14.19,7.4-21.56,10.5c-7.4,3.02-14.87,5.82-22.31,8.69c-3.72,1.43-7.43,2.9-11.1,4.45
								C248.05,490.23,244.3,491.78,241.41,494.59z"/>
						</g>
						<g>
							<path class="st2" d="M255.39,467.17c1.42-4.14,1.56-8.54,1.28-12.85c-0.28-4.32-0.89-8.64-1.14-13.02
								c-0.17-4.39,0.12-8.8,0.97-13.1c0.43-2.15,0.98-4.27,1.65-6.36c0.7-2.07,1.49-4.12,2.44-6.08c-0.75,2.05-1.43,4.11-1.97,6.22
								c-0.57,2.09-1.03,4.21-1.36,6.35c-0.68,4.27-0.97,8.61-0.73,12.92c0.16,4.32,0.78,8.65,0.9,13.03c0.05,2.19,0,4.39-0.29,6.57
								C256.83,463.03,256.3,465.18,255.39,467.17z"/>
						</g>
						<g>
							<path class="st2" d="M267.18,450.95c2.82-1.84,5.82-3.42,8.87-4.86c3.07-1.41,6.22-2.65,9.39-3.79
								c6.36-2.28,12.86-4.09,19.27-6.14c6.43-1.97,12.78-4.2,18.84-7.08c6.05-2.87,11.79-6.49,16.67-11.16
								c-2.28,2.48-4.88,4.68-7.62,6.65c-2.76,1.95-5.69,3.67-8.71,5.2c-6.05,3.05-12.45,5.3-18.88,7.35
								c-6.45,1.97-12.93,3.79-19.32,5.91C279.33,445.14,273.05,447.63,267.18,450.95z"/>
						</g>
						<g>
							<path class="st2" d="M288.85,426.09c2-1.9,3.19-4.43,3.89-7.03c0.74-2.61,1.11-5.31,1.56-8.01c0.22-1.35,0.53-2.7,0.84-4.04
								c0.38-1.32,0.7-2.67,1.17-3.96c0.83-2.63,1.94-5.16,3.14-7.64c2.53-4.89,5.67-9.49,9.47-13.47
								c3.76-4.02,8.16-7.41,12.93-10.08c-2.26,1.54-4.51,3.09-6.54,4.91c-1.05,0.86-2.03,1.82-3.02,2.74
								c-0.94,0.98-1.93,1.92-2.8,2.96c-1.82,2.02-3.48,4.16-5.03,6.39c-1.53,2.24-2.9,4.59-4.11,7.01
								c-2.46,4.83-4.23,10-5.28,15.33c-0.55,2.67-1,5.39-1.85,8.01C292.34,421.8,291.01,424.37,288.85,426.09z"/>
						</g>
						<g>
							<path class="st2" d="M305.01,408.12c0.78-0.66,1.56-1.32,2.35-1.96l2.5-1.79l2.62-1.61l2.69-1.48
								c3.63-1.9,7.42-3.45,11.17-5.04c3.78-1.52,7.54-3.08,11.19-4.84l2.72-1.37l2.65-1.5l2.58-1.62c0.82-0.6,1.65-1.19,2.48-1.78
								c-0.77,0.67-1.54,1.34-2.33,2l-2.47,1.82l-2.6,1.64l-2.68,1.51c-3.62,1.92-7.41,3.49-11.16,5.08
								c-3.78,1.52-7.54,3.07-11.21,4.8C311.84,403.7,308.29,405.69,305.01,408.12z"/>
						</g>
						<g>
							<path class="st2" d="M264.29,455.99l3.15-1.7l3.24-1.51l3.33-1.33l3.37-1.2c4.52-1.52,9.14-2.71,13.72-3.98
								c4.6-1.19,9.17-2.47,13.66-4c4.48-1.53,8.86-3.4,12.98-5.79c-0.99,0.65-2,1.3-3.01,1.93l-3.14,1.72l-3.25,1.51l-3.32,1.35
								c-4.47,1.7-9.07,2.97-13.66,4.24c-4.61,1.19-9.21,2.38-13.75,3.74C273.07,452.35,268.59,453.95,264.29,455.99z"/>
						</g>
						<g>
							<path class="st2" d="M254.72,469.13c0.23-1.36,0.06-2.73-0.39-4.01c-0.41-1.29-1.02-2.51-1.65-3.72
								c-1.3-2.42-2.4-5.02-3.17-7.68c-0.77-2.67-1.27-5.43-1.43-8.2c-0.09-1.38-0.09-2.77-0.04-4.15c0.09-1.38,0.22-2.76,0.46-4.12
								c-0.06,2.76,0.01,5.49,0.34,8.2c0.34,2.7,0.85,5.38,1.63,7.99c0.73,2.63,1.76,5.13,2.9,7.63c0.55,1.26,1.1,2.56,1.43,3.92
								C255.11,466.35,255.18,467.81,254.72,469.13z"/>
						</g>
						<g>
							<path class="st2" d="M241.86,495.65c2.02-1.14,4.18-2.01,6.37-2.76c2.2-0.73,4.45-1.31,6.71-1.83
								c4.51-1.04,9.08-1.77,13.5-2.99c4.45-1.13,8.79-2.68,13.02-4.48c2.12-0.89,4.2-1.88,6.25-2.94c2.06-1.03,4.07-2.18,6.06-3.35
								c-1.87,1.36-3.83,2.59-5.82,3.78c-2.01,1.15-4.07,2.22-6.17,3.21c-4.21,1.96-8.6,3.52-13.08,4.74
								c-4.51,1.16-9.08,1.9-13.6,2.78C250.58,492.68,246.09,493.76,241.86,495.65z"/>
						</g>
						<g>
							<path class="st2" d="M287.34,428.59c1.31-1.2,2.25-2.73,2.82-4.38c0.6-1.64,0.89-3.37,0.96-5.11
								c0.15-3.49-0.39-7.01-0.3-10.62c0.09-3.59,0.71-7.17,1.87-10.56c0.58-1.69,1.27-3.35,2.08-4.94
								c0.84-1.58,1.76-3.11,2.83-4.53c-0.88,1.54-1.71,3.11-2.39,4.74c-0.71,1.61-1.31,3.27-1.79,4.96
								c-0.96,3.37-1.53,6.86-1.6,10.36c-0.11,3.49,0.41,7.05,0.07,10.65c-0.17,1.79-0.56,3.58-1.28,5.24
								C289.87,426.03,288.8,427.56,287.34,428.59z"/>
						</g>
						<g>
							<path class="st2" d="M304.63,410.22c1.31-0.97,2.82-1.67,4.37-2.21c1.57-0.51,3.19-0.83,4.81-1.06
								c3.25-0.46,6.52-0.48,9.74-0.74c3.21-0.23,6.39-0.81,9.5-1.66c1.56-0.42,3.09-0.94,4.59-1.53c1.52-0.56,2.99-1.24,4.46-1.94
								c-1.36,0.9-2.8,1.67-4.27,2.39c-1.48,0.69-3.01,1.29-4.56,1.82c-3.11,1.04-6.37,1.67-9.64,1.92
								c-3.27,0.24-6.52,0.23-9.73,0.5C310.7,407.99,307.49,408.63,304.63,410.22z"/>
						</g>
					</g>
					<g>
						<path class="st3" d="M374.13,352.96c-10.38,5.69-20.25,12.26-29.49,19.61c-9.3,7.27-18.05,15.22-26.37,23.58
							c-16.66,16.73-31.85,34.86-47.05,53c-7.61,9.03-15.07,18.15-20.27,28.66c-5.47,10.4-9.98,21.35-14.55,32.24
							c-4.51,10.93-8.78,21.96-12.97,33.03l-6.31,16.6c-2.07,5.55-4.15,11.09-6.26,16.62c3.59-11.28,7.37-22.51,11.19-33.72
							c3.91-11.18,7.94-22.32,12.21-33.38c2.12-5.54,4.34-11.04,6.68-16.49c1.17-2.73,2.39-5.44,3.6-8.15
							c1.29-2.68,2.49-5.4,3.89-8.04c1.31-2.68,2.84-5.27,4.35-7.86c1.59-2.55,3.27-5.03,5.03-7.44c3.52-4.83,7.31-9.43,11.11-13.97
							c15.26-18.09,30.58-36.26,47.74-52.71c8.58-8.21,17.55-16.03,27.09-23.1C353.35,364.41,363.44,358.06,374.13,352.96z"/>
					</g>
				</g>
			</g>
			<g>
				<path class="st1" d="M232.1,402.22c4.9-8.47,10.21-16.93,18.24-22.74c0.22-0.1,0.44-0.19,0.66-0.29
					c0.15-0.07,0.18-0.19,0.15-0.3c0.4-0.3,0.02-0.97-0.42-0.69c-0.56,0.36-1.1,0.74-1.65,1.12
					c-57.73,23.6-121.56-7.65-179.67,13.71c-22.04,8.1-40.97,23.33-54.87,42.13c-7.2,9.75-13.07,20.47-17.4,31.79
					c-2.04,5.33-2,8.87-2,14.5c0,14.22-0.01,28.45-0.01,42.67c0,0.3,0.25,0.55,0.56,0.56c28.48,0.53,56.97,1.05,85.45,1.58
					c6.51,0.12,13.02,0.24,19.53,0.36c5.3,0.1,9.56-0.71,14.92-1.83c15.74-3.3,31.4-7.68,44.91-16.69
					c11.71-7.81,21.43-18.23,29.66-29.58c11.21-15.47,19.53-32.74,27.99-49.79C222.59,419.79,227.09,410.86,232.1,402.22z"/>
				<g>
					<g>
						<g>
							<path class="st2" d="M70.62,393.04c-8.67,5.87-15.91,13.67-21.53,22.42c-5.64,8.77-9.75,18.46-12.64,28.47
								c-1.49,4.99-2.61,10.1-3.83,15.19c-1.21,5.09-2.41,10.19-3.88,15.23c-1.45,5.04-3.11,10.02-5.14,14.86
								c-2.06,4.82-4.47,9.51-7.44,13.82c2.78-4.43,5.09-9.14,6.98-14c1.93-4.85,3.5-9.84,4.85-14.88
								c1.34-5.05,2.56-10.13,3.73-15.23c1.19-5.09,2.28-10.22,3.76-15.26c2.99-10.05,7.12-19.85,12.96-28.6
								c2.92-4.36,6.21-8.49,9.92-12.21C62.08,399.13,66.17,395.79,70.62,393.04z"/>
						</g>
						<g>
							<path class="st2" d="M30.29,496.51c5.65-1.97,11.53-3.29,17.47-4.14c5.94-0.82,11.95-1.15,17.95-1.15
								c12.01,0.02,23.95,1.52,35.8,3.19c11.85,1.75,23.66,3.68,35.56,4.75c5.95,0.55,11.92,0.85,17.9,0.79
								c5.96-0.07,12-0.28,17.76-1.96c-5.71,1.91-11.79,2.22-17.75,2.45c-5.99,0.16-12-0.06-17.97-0.52
								c-11.96-0.92-23.8-2.86-35.64-4.53c-11.83-1.75-23.72-3.22-35.66-3.41C53.78,491.8,41.75,492.96,30.29,496.51z"/>
						</g>
						<g>
							<path class="st2" d="M55.84,484.14c4.36-3.53,7.82-8.03,10.54-12.88c2.76-4.85,4.81-10.06,6.65-15.34
								c1.82-5.28,3.51-10.62,5.5-15.88c1.99-5.25,4.28-10.39,6.91-15.36c2.66-4.95,5.66-9.72,9.08-14.19
								c3.43-4.45,7.32-8.61,11.87-11.96c4.53-3.37,9.56-5.97,14.74-8.12c5.19-2.12,10.52-3.86,15.87-5.52
								c-5.27,1.88-10.57,3.7-15.68,5.97c-5.11,2.23-10.06,4.89-14.47,8.28c-4.4,3.39-8.25,7.47-11.61,11.9
								c-3.36,4.44-6.31,9.19-8.92,14.11c-2.63,4.91-4.93,10.01-6.94,15.21c-2.02,5.2-3.68,10.55-5.63,15.81
								c-1.93,5.26-4.08,10.48-6.95,15.32C63.92,476.31,60.34,480.78,55.84,484.14z"/>
						</g>
						<g>
							<path class="st2" d="M73.46,475.41c5.24-2.24,10.71-3.92,16.27-5.2c5.57-1.24,11.23-2.04,16.92-2.51
								c11.39-0.97,22.82-0.26,34.18,0.08c11.34,0.41,22.79,0.41,33.89-1.99c2.77-0.6,5.51-1.33,8.19-2.25
								c2.68-0.91,5.31-2,7.89-3.18c5.18-2.34,10.11-5.2,14.94-8.21c-4.71,3.2-9.6,6.15-14.73,8.65c-2.57,1.24-5.2,2.36-7.89,3.33
								c-2.69,0.97-5.45,1.75-8.23,2.4c-11.18,2.58-22.73,2.57-34.09,2.23c-11.38-0.42-22.75-1.12-34.09-0.32
								c-5.66,0.37-11.31,1.09-16.88,2.23c-2.78,0.57-5.55,1.23-8.28,2.01C78.82,473.5,76.12,474.4,73.46,475.41z"/>
						</g>
						<g>
							<path class="st2" d="M106.36,460.73c8.14-4.24,15.18-10.35,20.75-17.58c2.82-3.6,5.47-7.33,8.19-11.02
								c2.74-3.69,5.58-7.3,8.55-10.8c2.99-3.49,6.15-6.83,9.44-10.04c3.29-3.21,6.75-6.25,10.44-9.01
								c3.68-2.76,7.5-5.34,11.55-7.52c4.05-2.16,8.26-4.04,12.61-5.49c-8.56,3.29-16.54,7.94-23.69,13.61
								c-7.2,5.62-13.66,12.14-19.59,19.09c-2.98,3.47-5.83,7.04-8.58,10.7c-2.75,3.66-5.39,7.41-8.32,10.96
								c-2.91,3.55-6.1,6.92-9.69,9.81C114.42,456.31,110.52,458.79,106.36,460.73z"/>
						</g>
						<g>
							<path class="st2" d="M228.8,409.14c-5.16,6.08-11.25,11.39-17.95,15.78c-6.72,4.36-14.05,7.78-21.7,10.17
								c-7.69,2.33-15.67,3.45-23.62,4.04c-3.98,0.31-7.96,0.49-11.92,0.88c-3.96,0.35-7.9,0.98-11.72,2.13
								c3.75-1.37,7.71-2.11,11.67-2.62c3.97-0.49,7.95-0.75,11.91-1.16c3.96-0.41,7.92-0.82,11.83-1.49
								c3.92-0.65,7.78-1.58,11.57-2.73c7.59-2.29,14.84-5.68,21.58-9.86c3.37-2.1,6.59-4.44,9.65-6.98
								C223.17,414.78,226.06,412.04,228.8,409.14z"/>
						</g>
						<g>
							<path class="st2" d="M52.92,485.78c2.49-2.87,4.46-6.14,5.91-9.62c1.47-3.48,2.55-7.1,3.46-10.78l2.6-11.07
								c0.9-3.69,1.94-7.37,3.19-10.96c2.54-7.18,5.72-14.14,9.62-20.68c3.87-6.56,8.44-12.68,13.56-18.28
								c-2.4,2.94-4.71,5.94-6.85,9.06c-2.17,3.1-4.19,6.31-6.04,9.6c-1.84,3.3-3.6,6.65-5.16,10.09
								c-1.55,3.44-2.95,6.96-4.18,10.53c-1.27,3.56-2.33,7.19-3.25,10.85c-0.93,3.67-1.72,7.38-2.74,11.05
								c-1,3.67-2.17,7.31-3.75,10.78C57.66,479.81,55.57,483.07,52.92,485.78z"/>
						</g>
						<g>
							<path class="st2" d="M24.2,499.92c4.29-0.9,8.71-1.23,13.1-1.13c4.4,0.11,8.78,0.64,13.11,1.41
								c8.67,1.57,17.06,4.24,25.47,6.66c4.2,1.25,8.4,2.45,12.66,3.46c4.25,1.03,8.55,1.83,12.86,2.56
								c8.64,1.39,17.38,2.1,26.15,2.23c-4.38,0.15-8.77,0.07-13.16-0.15c-4.38-0.27-8.76-0.7-13.11-1.31
								c-8.71-1.21-17.27-3.34-25.68-5.82c-8.4-2.51-16.76-5.15-25.33-6.87c-4.28-0.86-8.62-1.47-12.98-1.68
								C32.92,499.01,28.54,499.25,24.2,499.92z"/>
						</g>
						<g>
							<path class="st2" d="M74.76,475.62c4.18-0.99,8.46-1.5,12.75-1.74c4.3-0.21,8.6-0.11,12.89,0.12
								c8.58,0.49,17.1,1.64,25.63,2.23c8.53,0.68,17.1,0.72,25.64,0.24c4.27-0.24,8.54-0.62,12.79-1.16
								c4.25-0.5,8.49-1.18,12.71-1.96c-4.17,0.99-8.4,1.78-12.64,2.44c-4.25,0.63-8.52,1.11-12.8,1.44
								c-8.57,0.65-17.19,0.6-25.77-0.01c-8.57-0.68-17.07-1.82-25.61-2.46C91.83,474.12,83.21,474.05,74.76,475.62z"/>
						</g>
						<g>
							<path class="st2" d="M110.78,457.17c1.3-1,2.5-2.09,3.6-3.3c1.07-1.22,2.06-2.51,2.93-3.88c1.77-2.72,3.19-5.66,4.49-8.64
								c1.29-2.99,2.53-6.01,3.87-9c1.35-2.99,2.79-5.93,4.32-8.83c3.14-5.75,6.52-11.39,10.59-16.55c2.06-2.56,4.28-4.99,6.71-7.2
								c2.47-2.17,5.12-4.12,8-5.68c-5.55,3.48-10.18,8.18-14.1,13.35c-3.91,5.2-7.27,10.8-10.32,16.55
								c-1.55,2.86-3.01,5.78-4.37,8.73c-1.38,2.95-2.59,5.98-4,8.94c-1.39,2.96-2.91,5.89-4.78,8.6c-0.95,1.34-2.01,2.61-3.14,3.79
								C113.42,455.23,112.14,456.26,110.78,457.17z"/>
						</g>
						<g>
							<path class="st2" d="M138.48,444.75c2.45-1.07,5.1-1.66,7.76-1.97c2.67-0.29,5.36-0.27,8.04-0.13
								c5.35,0.3,10.62,1.21,15.91,1.49c5.29,0.37,10.61,0.2,15.88-0.36c2.64-0.27,5.27-0.67,7.88-1.18c2.62-0.48,5.2-1.11,7.78-1.8
								c-2.51,0.91-5.08,1.64-7.68,2.28c-2.6,0.61-5.24,1.1-7.89,1.47c-5.31,0.73-10.69,0.89-16.04,0.59
								c-5.36-0.37-10.62-1.27-15.9-1.73C148.96,442.95,143.55,443.01,138.48,444.75z"/>
						</g>
					</g>
					<g>
						<path class="st3" d="M252.49,377.96c-13.39,8.18-26.89,16.19-40.33,24.29l-40.5,24c-6.75,4-13.5,8-20.3,11.92
							c-6.79,3.94-13.62,7.83-20.57,11.53c-6.94,3.71-14.03,7.16-21.17,10.46l-21.44,9.72C59.71,482.93,31.82,497.4,3.22,510.4
							c-14.3,6.5-28.72,12.75-43.35,18.47c-14.66,5.62-29.5,10.85-44.65,14.98c14.95-4.79,29.65-10.27,44.1-16.35
							c14.49-5.99,28.77-12.46,42.92-19.2c14.14-6.78,28.24-13.62,42.3-20.6c14.07-6.94,28.12-13.94,42.39-20.54l21.49-9.59
							c7.13-3.24,14.17-6.63,21.09-10.27c13.85-7.27,27.3-15.36,40.99-23.03l40.92-23.27C225.11,393.32,238.75,385.56,252.49,377.96
							z"/>
					</g>
				</g>
			</g>
		</g>
		<g style="clip-path:url(#SVGID_00000134939920255641585250000009940327955731348650_);">
			<path class="st1" d="M503.99,161.81c-0.07-0.05-0.16-0.08-0.24-0.05c0,0-0.01,0-0.01,0c-0.01,0-0.01,0.01-0.01,0.01
				c-0.04,0.01-0.07,0.04-0.1,0.07c-7.52,7.84-18.25,12.6-27.03,18.91c-8.5,6.11-16.61,12.93-23.23,21.08
				c-14.08,17.34-19.09,42.44-14.46,64.22c0.04,0.18,0.18,0.27,0.33,0.29c0.06,0.01,0.12,0.02,0.18,0
				c21.38-5.35,41.71-21.03,50.97-41.06c4.52-9.77,7.11-20.32,8.83-30.91c1.72-10.57,1.26-22.12,4.92-32.23
				C504.18,162,504.1,161.88,503.99,161.81z"/>
			<g>
				<g>
					<g>
						<path class="st2" d="M494.5,175.94c-0.83,3.18-1.23,6.43-1.44,9.69c-0.2,3.26-0.26,6.54-0.44,9.83
							c-0.2,3.29-0.54,6.6-1.37,9.82c-0.42,1.61-0.93,3.19-1.6,4.71c-0.69,1.5-1.5,2.96-2.51,4.26c1.67-2.84,2.72-5.96,3.36-9.14
							c0.64-3.19,0.94-6.44,1.12-9.7c0.2-3.27,0.3-6.56,0.68-9.84c0.19-1.64,0.43-3.28,0.77-4.89
							C493.44,179.06,493.88,177.46,494.5,175.94z"/>
					</g>
					<g>
						<path class="st2" d="M441.67,222.84c1.51-3.43,3.85-6.52,6.75-8.97c1.44-1.24,3.03-2.3,4.72-3.19
							c1.69-0.88,3.49-1.54,5.3-2.08c3.65-1.03,7.36-1.58,11-2.34c3.62-0.78,7.22-1.89,10.33-4.02c-1.42,1.23-3.07,2.18-4.79,2.96
							c-1.73,0.76-3.54,1.32-5.36,1.8c-3.64,0.95-7.35,1.52-10.9,2.56c-3.56,0.99-6.9,2.62-9.81,4.91
							c-1.46,1.13-2.81,2.41-4.01,3.83C443.68,219.68,442.62,221.22,441.67,222.84z"/>
					</g>
					<g>
						<path class="st2" d="M468.17,220.02c-0.88,3.03-1.27,6.14-1.47,9.26c-0.18,3.12-0.23,6.26-0.43,9.42
							c-0.23,3.15-0.66,6.33-1.65,9.37c-0.5,1.51-1.12,2.99-1.92,4.37c-0.82,1.36-1.78,2.65-2.94,3.72
							c2.02-2.43,3.32-5.32,4.12-8.31c0.8-3,1.19-6.1,1.39-9.22c0.23-3.12,0.3-6.27,0.67-9.42c0.18-1.57,0.42-3.14,0.76-4.69
							C467.08,222.99,467.52,221.46,468.17,220.02z"/>
					</g>
					<g>
						<path class="st2" d="M480.38,200.04c-0.86,0.93-1.93,1.66-3.07,2.24c-1.16,0.55-2.39,0.94-3.64,1.22
							c-2.51,0.57-5.07,0.6-7.57,0.72c-2.5,0.09-4.96,0.31-7.36,0.96c-1.2,0.31-2.37,0.73-3.51,1.23c-1.16,0.47-2.26,1.07-3.35,1.7
							c0.97-0.82,2.03-1.51,3.14-2.14c1.12-0.6,2.3-1.11,3.51-1.52c2.42-0.85,5.02-1.12,7.54-1.23c2.52-0.1,5.02-0.1,7.47-0.48
							c1.22-0.18,2.43-0.48,3.59-0.92C478.28,201.42,479.38,200.81,480.38,200.04z"/>
					</g>
					<g>
						<path class="st2" d="M470.25,217.17c-0.54,2.2-0.66,4.44-0.52,6.66c0.15,2.22,0.48,4.43,0.82,6.66
							c0.32,2.23,0.67,4.48,0.73,6.76l0,1.71l-0.11,1.71l-0.28,1.69c-0.14,0.55-0.29,1.1-0.45,1.64c0.06-0.57,0.12-1.12,0.19-1.68
							l0.06-1.68l-0.03-1.67l-0.13-1.67c-0.23-2.22-0.6-4.43-0.95-6.66c-0.32-2.23-0.63-4.5-0.6-6.79l0.08-1.71l0.21-1.7l0.4-1.66
							C469.84,218.22,470.04,217.69,470.25,217.17z"/>
					</g>
					<g>
						<path class="st2" d="M459.57,194.77c1.06-1.08,2.24-2.05,3.51-2.89c1.29-0.81,2.63-1.55,4.03-2.16
							c2.79-1.25,5.74-2.05,8.68-2.76c2.95-0.68,5.93-1.23,8.85-1.85c1.45-0.33,2.89-0.75,4.21-1.42c1.33-0.64,2.52-1.6,3.33-2.88
							c-0.61,1.4-1.79,2.5-3.1,3.31c-1.33,0.79-2.79,1.31-4.25,1.74c-2.94,0.81-5.89,1.38-8.82,2.08c-2.93,0.68-5.83,1.44-8.62,2.5
							C464.6,191.47,461.95,192.9,459.57,194.77z"/>
					</g>
				</g>
				<g>
					<path class="st3" d="M439.62,265.64c6.64-11.78,13.43-23.46,20.39-35.03c3.45-5.81,6.98-11.56,10.48-17.34l10.62-17.25
						l10.76-17.17c3.63-5.69,7.22-11.41,10.9-17.08c7.29-11.37,14.75-22.64,22.38-33.8c-6.63,11.78-13.43,23.46-20.39,35.04
						c-3.45,5.81-6.99,11.56-10.48,17.34l-10.62,17.25l-10.76,17.17c-3.63,5.69-7.22,11.41-10.9,17.08
						C454.7,243.21,447.24,254.48,439.62,265.64z"/>
				</g>
			</g>
		</g>
		<g style="clip-path:url(#SVGID_00000134939920255641585250000009940327955731348650_);">
			<defs>
				<rect id="SVGID_3_" y="75.95" width="165.3" height="165.3"/>
			</defs>
			<clipPath id="SVGID_00000183210763386457854770000010221384108720427664_">
				<use xlink:href="#SVGID_3_"  style="overflow:visible;"/>
			</clipPath>
			<g style="clip-path:url(#SVGID_00000183210763386457854770000010221384108720427664_);">
				<g>
					<g>
						<path class="st4" d="M94.28,213.49c0.49-0.42,3.69-3.24,4.2-3.67c-0.18,0.15-0.41,0.33-0.61,0.49
							c4.52-4.22,9.17-9.81,8.01-16.09c-0.02-0.08-0.14-0.07-0.13,0.02c0,0.01,0,0.01,0,0.02c-1.57-3.18-3.93-5.65-7.06-7.33
							c5.3-5.58,7.55-12.82,7.71-20.51c0.02,0.01,0.02,0.03,0.04,0.03c10.85-3.21,16.67-8.84,18.94-15.58
							c-0.03-0.08-0.03-0.17,0.03-0.26c0.04-0.07,0.07-0.14,0.11-0.21c0.17-0.54,0.3-1.09,0.42-1.65c0.01-0.49,0.03-0.98,0.03-1.47
							c0.01-1.68,0.01-3.35-0.14-5.02c-0.3-3.32-1.05-6.58-2.04-9.75c-0.01-0.02,0.01-0.04,0.01-0.06c-1-2.41-2.2-4.73-3.42-7.02
							c-0.72-1.35-1.38-2.73-2.08-4.09c-0.63-1.22-1.28-2.46-2.1-3.55c-0.67-0.89-1.42-1.71-2.06-2.61c-0.4-0.56-0.79-1.19-1-1.86
							c-4.55-5.33-9.78-9.88-14.9-12.92c-0.14-0.65-0.32-1.31-0.54-1.96c-2.14-6.26-8.2-10.5-13.77-13.44
							c-14.35-7.59-30.22-4.28-45.03,0.33c-1.98-0.21-3.99-0.27-6.06-0.1c-11.24,0.9-20.55,7.89-27.76,16.11
							c-7.28,8.3-15.65,18.75-19.64,29.53c-3.99,10.1-6.52,20.7-4.7,31.5c2.18,13.01,4.25,28.5,13.81,38.4
							c2.01,2.08,4.06,3.68,6.14,4.94c5.79,11.5,19.91,20.5,33.43,23.89c-0.01,0-0.05-0.01-0.06-0.01c0.01,0,0.05,0.01,0.06,0.01
							c0.8,0.2,1.6,0.39,2.39,0.55c-0.67-0.14-1.34-0.31-2.01-0.49c1.37,0.23,5.78,0.99,7.74,1.29c-0.01,0-0.03,0-0.04,0
							c0.01,0,0.04,0,0.05,0c0.05,0.01,0.13,0.02,0.18,0.03c-0.05-0.01-0.12-0.02-0.18-0.03c1.11-0.01,4.75,0.08,8.03-0.26
							c-0.25,0.04-0.49,0.11-0.74,0.14c0.92-0.1,1.83-0.24,2.73-0.42c0.17-0.03,0.35-0.05,0.51-0.09c-0.06,0.01-0.19,0.02-0.28,0.04
							c3.95-0.79,7.62-2.36,10.54-5.19c0.19,0.16,0.45,0.34,0.54,0.34C75.26,225.53,85.4,221.01,94.28,213.49z"/>
						<path class="st4" d="M42.17,230.93C42.16,230.93,42.16,230.93,42.17,230.93c-0.2-0.02-0.43-0.06-0.72-0.1
							c0.29,0.04,0.52,0.08,0.71,0.1c0.09,0.01,0.18,0.02,0.24,0.03C42.34,230.96,42.24,230.95,42.17,230.93
							C42.16,230.93,42.17,230.93,42.17,230.93z"/>
						<path class="st4" d="M45.49,231.07c0.03,0,0.05,0,0.08,0c-0.05,0-0.1,0-0.16,0C45.44,231.06,45.46,231.07,45.49,231.07z"/>
					</g>
					<g class="st5">
						<path class="st4" d="M42.17,230.93C42.16,230.93,42.16,230.93,42.17,230.93c-0.2-0.02-0.43-0.06-0.72-0.1
							c0.29,0.04,0.52,0.08,0.71,0.1c0.09,0.01,0.18,0.02,0.24,0.03C42.34,230.96,42.24,230.95,42.17,230.93
							C42.16,230.93,42.17,230.93,42.17,230.93z"/>
						<path class="st4" d="M45.49,231.07c0.03,0,0.05,0,0.08,0c-0.05,0-0.1,0-0.16,0C45.44,231.06,45.46,231.07,45.49,231.07z"/>
					</g>
					<path class="st6" d="M104.82,164.24c0,0,17.45-3.39,15.18-12.59c-2.28-9.2-20.77-22.4-27.16-23.32
						c-6.38-0.92-81.58-5.99-81.58-5.99s-13.67,3.65-19.78,7.68c0,0,7.93,6.63,11.96,8.78c4.03,2.15,88.5,53.13,88.5,53.13
						s12.87,7.77,13.95,2.29c0,0-3.29-6.59-8.84-8.37C91.49,184.07,104.82,164.24,104.82,164.24z"/>
					<path class="st3" d="M54.65,119.32c0,0-35.39-2.09-45.32,3.96c-9.92,6.05-9.27,12.58-7.56,14.8
						c1.05,1.37,35.6,24.73,35.6,24.73L54.65,119.32z"/>
					<path class="st4" d="M106.4,166.42c0,0,11.88-3.1,15.71-10.38c3.83-7.28-17.29-27.1-26.14-29.47c-8.85-2.37-43.4-7.5-43.4-7.5
						l38.25,9.6c0,0,19.15,8.76,25.6,19.93c6,10.38-10.23,14.27-10.23,14.27L106.4,166.42z"/>
					<path class="st6" d="M106.4,166.42c0,0,11.88-3.1,15.71-10.38c3.83-7.28-17.29-27.1-26.14-29.47c-8.85-2.37-43.4-7.5-43.4-7.5
						l38.25,9.6c0,0,19.15,8.76,25.6,19.93c6,10.38-10.23,14.27-10.23,14.27L106.4,166.42z"/>
					<path class="st7" d="M94.26,130.19c0,0,13.23,17.3,11.97,37.64c-1.26,20.34-14.29,24.1-14.29,24.1s-34.39-14.49-55.97-30.12
						c0,0,3.24-5.57,1.98-7.93c-1.27-2.36-4.09-5.9-0.62-10.04c3.47-4.14,6.67-6.07,5.37-13.27c0,0,9.85-3.52,11.97-11.25
						C54.65,119.32,85.55,126.15,94.26,130.19z"/>
				</g>
				<g>
					<g>
						<path class="st7" d="M106.42,166.34c1.79-0.21,3.47-0.87,5.08-1.62c1.61-0.77,3.15-1.69,4.58-2.75
							c2.87-2.1,5.81-4.3,7.49-7.39c1.68-3.07,1.53-6.8,1.52-10.3c-0.14-3.55-0.83-7.05-1.78-10.47c-0.95-3.43-2.34-6.71-3.92-9.9
							c-1.62-3.17-3.59-6.15-5.68-9.03c-2.17-2.83-4.56-5.49-7.17-7.93c-2.63-2.42-5.48-4.59-8.52-6.51
							c3.15,1.73,6.08,3.83,8.84,6.15c2.7,2.39,5.18,5.02,7.45,7.83c2.22,2.85,4.19,5.89,5.88,9.09c1.63,3.22,3.08,6.56,4.07,10.04
							c0.94,3.5,1.61,7.08,1.72,10.71c0.05,0.9-0.02,1.81-0.02,2.72c-0.01,0.91-0.05,1.81-0.16,2.72c-0.18,1.81-0.65,3.66-1.58,5.27
							c-1.88,3.24-4.95,5.39-7.88,7.42c-1.5,1.02-3.09,1.88-4.75,2.59C109.96,165.65,108.22,166.24,106.42,166.34z"/>
					</g>
					<g>
						<path class="st7" d="M100.05,128.73c-1.39-1.48-2.34-3.36-2.81-5.34c-0.5-1.98-0.63-4.04-0.56-6.07
							c0.15-4.08,1.13-8.05,1.26-12.06c0.07-1.99-0.07-3.99-0.59-5.89c-0.52-1.9-1.47-3.65-2.66-5.22
							c-2.43-3.13-5.74-5.52-9.16-7.57c-3.43-2.05-7.14-3.67-11.01-4.67c-1.94-0.5-3.91-0.83-5.9-0.99c-1.99-0.15-3.99-0.12-6,0.01
							c-4.01,0.28-8.01,0.9-11.97,1.68c-3.97,0.76-7.9,1.71-11.78,2.86c7.65-2.65,15.59-4.5,23.69-5.31
							c4.05-0.41,8.22-0.14,12.18,0.86c3.98,0.99,7.78,2.61,11.3,4.69c3.47,2.12,6.85,4.57,9.38,7.87c1.24,1.65,2.24,3.52,2.77,5.54
							c0.55,2.01,0.64,4.11,0.52,6.15c-0.23,4.1-1.29,8.04-1.54,12.04c-0.14,2-0.09,4.03,0.33,5.99
							C97.91,125.29,98.74,127.18,100.05,128.73z"/>
					</g>
					<g>
						<path class="st7" d="M99.36,127.82c-5.65-2.95-10.62-7.05-15.36-11.28c-4.73-4.27-9.21-8.8-14-12.95
							c-4.81-4.13-9.96-7.86-15.44-11.03c-2.74-1.58-5.55-3.07-8.42-4.36c-1.44-0.64-2.91-1.2-4.41-1.61
							c-1.51-0.37-3.04-0.69-4.6-0.77c-6.25-0.5-12.53,1.34-18.01,4.38c-5.5,3.07-10.16,7.48-14.29,12.26
							c-4.15,4.79-7.73,10.06-11.41,15.24c-1.85,2.58-3.66,5.2-5.27,7.93c-1.58,2.74-3.06,5.6-3.73,8.72c0.59-3.14,2-6.05,3.52-8.84
							c1.55-2.78,3.3-5.45,5.08-8.09c3.6-5.24,7.12-10.56,11.23-15.46c4.08-4.9,8.82-9.37,14.43-12.56
							c5.59-3.12,12.03-5.07,18.53-4.58c1.62,0.09,3.21,0.44,4.79,0.83c1.56,0.44,3.07,1.02,4.54,1.68
							c2.92,1.33,5.73,2.84,8.49,4.45c5.5,3.24,10.72,6.99,15.48,11.24c4.76,4.25,9.18,8.83,13.82,13.17
							C88.95,120.52,93.79,124.72,99.36,127.82z"/>
					</g>
					<g>
						<path class="st7" d="M77.43,185.21c-3.43-0.45-6.92-0.06-10.2,0.95c-3.29,1-6.36,2.59-9.34,4.3c-2.99,1.71-5.9,3.56-8.9,5.28
							c-2.99,1.73-6.03,3.37-9.12,4.92c-3.09,1.55-6.21,3.03-9.41,4.36c-3.2,1.33-6.5,2.47-9.91,3.21
							c-3.41,0.73-6.93,1.04-10.43,0.69c-3.49-0.33-6.94-1.39-9.97-3.2c-6.08-3.65-10.35-9.64-13.02-16.03
							c-2.7-6.44-4.01-13.29-5.26-20.06c-0.62-3.4-1.28-6.77-1.86-10.19c-0.26-1.71-0.47-3.45-0.41-5.2
							c0.06-1.75,0.33-3.47,0.64-5.17c0.66-3.4,1.52-6.74,2.5-10.06c0.99-3.31,2.04-6.6,3.39-9.77c-1.28,3.2-2.25,6.52-3.16,9.84
							c-0.9,3.33-1.67,6.69-2.25,10.08c-1.64,6.81,0.77,13.57,1.91,20.33c1.36,6.75,2.65,13.55,5.34,19.85
							c2.64,6.25,6.84,12.05,12.69,15.52c2.89,1.75,6.18,2.78,9.56,3.11c3.37,0.35,6.81,0.08,10.14-0.63
							c6.69-1.43,12.96-4.43,19.17-7.37c3.09-1.51,6.15-3.1,9.15-4.78c3.01-1.67,5.94-3.49,8.97-5.16c3.04-1.64,6.17-3.17,9.51-4.11
							C70.49,184.99,74.02,184.68,77.43,185.21z"/>
					</g>
					<g>
						<path class="st7" d="M78.31,185.64c-0.85,0.87-1.63,1.81-2.35,2.78c-0.72,0.97-1.4,1.98-1.94,3.06
							c-1.09,2.16-1.78,4.5-2.28,6.86c-1.01,4.74-1.29,9.62-2.33,14.42c-1,4.77-2.93,9.58-6.58,13.07
							c-1.81,1.73-4.03,2.99-6.36,3.86c-2.34,0.85-4.79,1.32-7.24,1.54c-2.46,0.22-4.92,0.16-7.37,0.01
							c-2.44-0.16-4.89-0.43-7.3-0.97c-4.86-1.06-9.23-3.5-13.36-6.05c-4.15-2.55-8.24-5.25-11.95-8.44
							c-1.84-1.6-3.58-3.33-5.16-5.2l-1.15-1.43l-1.07-1.48c-0.62-1.03-1.46-2-1.69-3.22c0.28,1.2,1.15,2.12,1.82,3.13l1.11,1.44
							l1.18,1.38c1.62,1.81,3.4,3.46,5.27,5c3.74,3.09,7.84,5.7,12.03,8.16c4.18,2.44,8.45,4.85,13.16,5.82
							c2.35,0.51,4.75,0.76,7.16,0.91c2.41,0.13,4.83,0.17,7.22-0.06c2.39-0.19,4.76-0.64,7-1.44c2.23-0.82,4.34-2,6.06-3.62
							c1.74-1.61,3.09-3.62,4.13-5.77c1.04-2.16,1.77-4.46,2.33-6.81c1.12-4.7,1.49-9.58,2.6-14.35c0.57-2.38,1.35-4.72,2.52-6.88
							C74.97,189.22,76.56,187.33,78.31,185.64z"/>
					</g>
					<g>
						<path class="st7" d="M105.73,194.47c-1.08-1.46-2.13-2.82-3.33-4.05c-1.19-1.25-2.51-2.35-3.92-3.49
							c1.78,0.43,3.37,1.49,4.64,2.8C104.38,191.05,105.37,192.67,105.73,194.47z"/>
					</g>
					<g>
						<path class="st7" d="M94.38,192.98c2.12,0.46,4.11,1.3,6.07,2.08c0.97,0.39,1.95,0.78,2.89,0.88
							c0.46,0.02,0.91-0.07,1.31-0.35c0.42-0.26,0.73-0.7,1.08-1.12c-0.15,0.52-0.34,1.05-0.75,1.49c-0.4,0.44-1.01,0.72-1.62,0.76
							c-1.21,0.05-2.27-0.35-3.28-0.73c-1-0.41-1.97-0.87-2.92-1.37C96.22,194.11,95.28,193.59,94.38,192.98z"/>
					</g>
					<g>
						<path class="st7" d="M-8.7,130.15c8.12,5.98,16.28,11.92,24.57,17.66c8.29,5.74,16.66,11.35,25.24,16.64
							c8.53,5.36,17.26,10.41,26.14,15.18l6.69,3.52l6.76,3.39l6.81,3.28l6.88,3.15l-6.99-2.91l-6.92-3.08l-6.83-3.26l-6.76-3.4
							c-8.97-4.64-17.71-9.71-26.31-15.01c-8.55-5.38-16.95-10.98-25.15-16.87C7.22,142.56-0.83,136.47-8.7,130.15z"/>
					</g>
					<g>
						<path class="st7" d="M105.81,194.22c0.83,2.26,0.62,4.87-0.48,7.07c-1.12,2.15-2.57,4.1-4.15,5.92
							c-3.2,3.59-6.77,6.84-10.65,9.71c-3.92,2.79-8.19,5.16-12.78,6.67c-2.29,0.75-4.65,1.31-7.03,1.63
							c-2.39,0.29-4.8,0.38-7.18,0.14c2.39,0,4.77-0.18,7.11-0.63c2.34-0.42,4.63-1.05,6.85-1.87c4.45-1.63,8.63-3.94,12.45-6.75
							c3.86-2.75,7.39-5.98,10.67-9.41c1.62-1.73,3.11-3.59,4.29-5.64C106.08,199.05,106.42,196.53,105.81,194.22z"/>
					</g>
					<g>
						<path class="st7" d="M119.43,160.38c1.01-1.24,1.92-2.58,2.5-4.06c0.29-0.74,0.48-1.52,0.52-2.31
							c0.05-0.79-0.15-1.56-0.42-2.31c-1.08-3.01-3.13-5.53-5.11-8.01c-4-4.96-8.55-9.55-13.89-13.01
							c-2.66-1.74-5.53-3.13-8.51-4.17c-2.99-1.04-6.14-1.6-9.28-2.21c-6.29-1.2-12.59-2.31-18.92-3.16
							c-6.33-0.89-12.69-1.53-19.07-1.81c-6.38-0.27-12.78-0.1-19.14,0.41c-6.36,0.53-12.7,1.51-18.86,3.19
							c-6.18,1.61-12.17,3.98-17.77,7.1c5.51-3.27,11.46-5.79,17.63-7.57c3.08-0.9,6.22-1.6,9.38-2.17
							c3.16-0.57,6.35-1.01,9.54-1.31c6.39-0.63,12.83-0.77,19.25-0.55c6.42,0.25,12.82,0.86,19.17,1.73
							c6.36,0.89,12.67,2.03,18.96,3.26c3.14,0.62,6.32,1.21,9.38,2.29c3.06,1.07,5.98,2.54,8.65,4.35c5.38,3.6,9.9,8.3,13.85,13.35
							c1.92,2.54,3.94,5.15,4.96,8.24c0.26,0.76,0.44,1.58,0.37,2.4c-0.06,0.81-0.28,1.6-0.59,2.34
							C121.42,157.85,120.47,159.18,119.43,160.38z"/>
					</g>
					<g>
						<path class="st7" d="M106.19,162.87c1.94-0.73,3.86-1.5,5.68-2.47c1.8-0.96,3.53-2.2,4.64-3.87c1.06-1.69,1.02-3.89,0.36-5.76
							c-0.67-1.9-1.84-3.6-3.14-5.18c-5.16-6.4-11.99-11.33-19.42-14.81c-3.7-1.81-7.57-3.18-11.53-4.36
							c-3.95-1.2-7.95-2.23-11.96-3.23c-4.01-0.99-8.05-1.87-12.12-2.63c-4.06-0.78-8.15-1.42-12.28-1.71
							c8.29,0.24,16.48,1.84,24.57,3.6c4.05,0.89,8.06,1.94,12.05,3.11c3.98,1.16,7.94,2.52,11.7,4.33
							c7.49,3.6,14.46,8.61,19.59,15.24c1.28,1.64,2.47,3.43,3.13,5.46c0.65,2,0.67,4.38-0.55,6.22c-1.26,1.76-3.07,2.92-4.93,3.84
							C110.12,161.55,108.16,162.24,106.19,162.87z"/>
					</g>
					<g>
						<path class="st7" d="M11.37,122.49c-1.61,0.67-3.08,1.54-4.4,2.59c-1.31,1.06-2.48,2.28-3.41,3.67
							c-0.94,1.36-1.7,2.91-2.12,4.49c-0.18,0.81-0.29,1.65-0.27,2.48c0.01,0.83,0.14,1.69,0.66,2.4c-0.7-0.56-0.98-1.49-1.15-2.35
							c-0.14-0.88-0.14-1.78-0.01-2.68c0.3-1.8,1.06-3.43,2.06-4.92c1.01-1.47,2.3-2.75,3.78-3.73
							C7.98,123.46,9.66,122.79,11.37,122.49z"/>
					</g>
					<g>
						<path class="st7" d="M54.6,119.36c0.05,0.83-0.15,1.65-0.37,2.45c-0.26,0.78-0.58,1.6-1.21,2.25
							c-1.11,1.22-2.35,2.33-3.68,3.31c-2.66,1.95-5.7,3.43-8.91,4.11c2.95-1.43,5.75-3,8.32-4.91c1.3-0.94,2.52-1.97,3.72-3.06
							c0.56-0.48,0.95-1.17,1.31-1.89C54.14,120.92,54.43,120.16,54.6,119.36z"/>
					</g>
					<g>
						<path class="st7" d="M42.69,130.57c0.56,1.51,0.65,3.22,0.34,4.83c-0.29,1.63-0.95,3.17-1.82,4.57
							c-1.78,2.79-4.31,4.92-7.01,6.63c2.21-2.33,4.51-4.53,6.16-7.16c0.83-1.3,1.48-2.72,1.9-4.21
							C42.68,133.74,42.87,132.17,42.69,130.57z"/>
					</g>
					<g>
						<path class="st7" d="M36.42,145.15c-0.27,1.33-0.38,2.53-0.26,3.75c0.1,1.22,0.42,2.38,0.91,3.64
							c-1.14-0.78-1.78-2.17-1.91-3.56C35.05,147.61,35.44,146.12,36.42,145.15z"/>
					</g>
					<g>
						<path class="st7" d="M33.74,150.67c1.09,0.07,2.19,0.47,3.08,1.21c0.45,0.36,0.82,0.84,1.11,1.37
							c0.27,0.54,0.41,1.14,0.45,1.72c0.06,1.18-0.23,2.28-0.57,3.3c-0.34,1.02-0.72,2.03-1.19,3.02c0.07-1.09,0.24-2.16,0.44-3.22
							c0.19-1.05,0.4-2.07,0.33-3.05c-0.04-0.97-0.43-1.86-1.1-2.59C35.62,151.71,34.72,151.14,33.74,150.67z"/>
					</g>
					<g>
						<path class="st3" d="M92.75,191.59c2.46-1.47,4.68-3.32,6.42-5.56c1.8-2.19,3.21-4.69,4.25-7.31c1.05-2.63,1.75-5.39,2.1-8.19
							c0.32-2.81,0.35-5.65,0.08-8.48c-0.43-5.66-1.93-11.2-3.72-16.62c-0.45-1.36-0.92-2.7-1.46-4.01
							c-0.54-1.31-1.18-2.58-1.82-3.86c-1.26-2.56-2.69-5.05-4.37-7.37c1.86,2.18,3.39,4.64,4.8,7.14c0.69,1.26,1.38,2.52,1.97,3.84
							c0.59,1.32,1.11,2.66,1.61,4.01c1.95,5.4,3.47,11.01,3.98,16.79c0.24,2.88,0.18,5.8-0.18,8.67c-0.41,2.87-1.11,5.72-2.3,8.37
							c-1.16,2.66-2.67,5.16-4.59,7.34C97.65,188.51,95.32,190.31,92.75,191.59z"/>
					</g>
					<g>
						<path class="st7" d="M77.74,185.83c-2.65,0.81-5.11,2.09-7.37,3.66c-2.28,1.54-4.38,3.32-6.41,5.19
							c-4.06,3.72-7.91,7.7-12.02,11.43c-4.15,3.66-8.64,7.11-13.77,9.37c-2.56,1.12-5.25,1.95-8,2.4
							c-1.38,0.22-2.76,0.35-4.15,0.39c-1.39,0.04-2.8-0.07-4.12-0.5c2.71,0.62,5.5,0.15,8.18-0.37c2.69-0.55,5.3-1.44,7.77-2.62
							c4.95-2.36,9.35-5.73,13.42-9.42c4.13-3.64,7.98-7.63,12.18-11.26c2.1-1.81,4.28-3.55,6.65-5.02
							C72.48,187.64,75.03,186.43,77.74,185.83z"/>
					</g>
					<g>
						<path class="st7" d="M98.49,127.68c-1.58-0.16-3.1-0.69-4.56-1.32c-1.46-0.63-2.89-1.3-4.32-1.98
							c-2.85-1.37-5.67-2.81-8.47-4.3c-5.6-2.97-10.97-6.35-16.34-9.67c-5.34-3.36-10.79-6.56-16.62-8.93
							c-2.91-1.18-5.91-2.15-9-2.77c-3.07-0.67-6.23-0.93-9.4-0.82c3.15-0.33,6.35-0.17,9.49,0.34c3.14,0.53,6.21,1.43,9.19,2.53
							c5.97,2.25,11.47,5.5,16.87,8.8c2.68,1.68,5.34,3.39,8.03,5.04c2.69,1.66,5.42,3.23,8.16,4.81c2.74,1.57,5.51,3.08,8.32,4.54
							C92.64,125.37,95.36,127.1,98.49,127.68z"/>
					</g>
					<g>
						<path class="st7" d="M99.2,127.84c-1.41-1.47-2.67-3.08-3.86-4.73c-1.17-1.67-2.25-3.4-3.28-5.16
							c-2.05-3.52-3.81-7.19-5.72-10.76c-1.84-3.61-3.83-7.13-6.14-10.43c-2.3-3.3-5-6.36-8.2-8.86c1.73,1.08,3.3,2.39,4.79,3.8
							c1.46,1.43,2.79,2.99,4.04,4.61c2.47,3.26,4.49,6.83,6.4,10.42c1.84,3.63,3.61,7.28,5.5,10.85
							C94.62,121.15,96.7,124.63,99.2,127.84z"/>
					</g>
					<g>
						<path class="st7" d="M115.3,137.05c-0.35-3.47-1.05-6.89-2.07-10.19c-1.04-3.3-2.35-6.51-3.93-9.59
							c-1.56-3.09-3.39-6.04-5.34-8.91c-0.98-1.44-2-2.84-3.06-4.22c-1.04-1.4-2.14-2.75-3.22-4.12c1.25,1.22,2.43,2.51,3.6,3.81
							c1.14,1.32,2.25,2.68,3.31,4.08c2.12,2.79,4,5.78,5.61,8.9c1.59,3.14,2.9,6.43,3.77,9.83c0.44,1.7,0.79,3.43,1.03,5.16
							C115.2,133.55,115.33,135.3,115.3,137.05z"/>
					</g>
					<g>
						<path class="st7" d="M77.27,185.3c-3-1.56-6.13-2.82-9.37-3.73c-3.23-0.95-6.53-1.6-9.86-2.08
							c-6.66-0.97-13.4-1.26-20.15-1.74c-6.73-0.55-13.53-1.31-20.04-3.29c-3.25-0.99-6.42-2.18-9.54-3.49
							c-3.11-1.34-6.18-2.75-9.22-4.21c6.26,2.54,12.49,5.18,18.98,6.96c6.48,1.81,13.19,2.56,19.91,3.04
							c6.72,0.56,13.5,0.84,20.19,1.98c3.34,0.57,6.66,1.31,9.89,2.37C71.26,182.18,74.39,183.54,77.27,185.3z"/>
					</g>
				</g>
			</g>
		</g>
	</g>
	<g>
		<g>
			<path class="st4" d="M225.05,72.77c3.92,0,3.93-6.09,0-6.09C221.13,66.67,221.12,72.77,225.05,72.77L225.05,72.77z"/>
		</g>
		<g>
			<path class="st4" d="M157.86,22.57c3.38,0,3.38-5.25,0-5.25C154.48,17.32,154.47,22.57,157.86,22.57L157.86,22.57z"/>
		</g>
		<g>
			<path class="st4" d="M122.77,333.81c-0.16-0.12-0.32-0.25-0.48-0.37c0.33,0.25,0.66,0.51,0.99,0.76
				c-0.03-0.02-0.05-0.04-0.07-0.06c-0.34-0.26-0.67-0.52-1.01-0.78c-0.4-0.17-0.79-0.33-1.19-0.5c-0.66-0.21-1.32-0.24-1.98-0.09
				c-0.45,0-0.87,0.11-1.25,0.34c-0.42,0.12-0.79,0.33-1.1,0.64c-0.37,0.22-0.67,0.52-0.89,0.89c-0.31,0.31-0.52,0.68-0.64,1.1
				c-0.31,0.59-0.45,1.23-0.43,1.91c0.06,0.44,0.12,0.88,0.18,1.32c0.17,0.4,0.33,0.79,0.5,1.19c0.26,0.34,0.52,0.67,0.78,1.01
				c0.34,0.26,0.67,0.52,1.01,0.78c0.4,0.17,0.79,0.33,1.19,0.5c0.66,0.21,1.32,0.24,1.98,0.09c0.45,0,0.87-0.11,1.25-0.34
				c0.62-0.2,1.15-0.54,1.6-1.03c0.02-0.02,0.04-0.04,0.07-0.06c-0.33,0.25-0.66,0.51-0.99,0.76c0.16-0.12,0.32-0.25,0.48-0.37
				c0.67-0.4,1.2-0.93,1.6-1.6c0.4-0.69,0.61-1.44,0.61-2.25c0-0.8-0.21-1.55-0.61-2.25C123.98,334.74,123.44,334.21,122.77,333.81
				L122.77,333.81z"/>
		</g>
		<g>
			<path class="st4" d="M273.99,383.89c3.98,0,3.99-6.19,0-6.19C270.01,377.7,270,383.89,273.99,383.89L273.99,383.89z"/>
		</g>
		<g>
			<path class="st4" d="M490.82,370.34c0.19-0.28,0.39-0.55,0.58-0.83c0.07-0.17,0.14-0.34,0.21-0.51c0.09-0.28,0.1-0.56,0.04-0.84
				c0-0.19-0.05-0.37-0.14-0.53c-0.09-0.26-0.23-0.49-0.44-0.68c-0.27-0.25-0.58-0.43-0.93-0.54c-0.28-0.09-0.56-0.1-0.84-0.04
				c-0.28,0.01-0.54,0.1-0.79,0.25c-0.28,0.19-0.55,0.39-0.83,0.58c-0.35,0.2-0.62,0.48-0.82,0.82c-0.21,0.36-0.31,0.74-0.31,1.16
				c0.03,0.61,0.23,1.18,0.67,1.62c0.42,0.42,1.04,0.67,1.62,0.67c0.41,0,0.8-0.11,1.16-0.31
				C490.34,370.96,490.62,370.69,490.82,370.34L490.82,370.34z"/>
		</g>
		<g>
			<path class="st4" d="M481.68,280.24c0.67,0.47,1.39,0.83,2.24,0.81c0.53-0.01,1.12-0.16,1.58-0.43c0.24-0.14,0.48-0.37,0.7-0.55
				c0.12-0.1,0.23-0.19,0.35-0.29c0.47-0.4,0.8-1.26,0.77-1.86c-0.03-0.66-0.24-1.41-0.77-1.86c-0.1-0.09-0.21-0.18-0.31-0.26
				c-0.67-0.56-1.39-1.02-2.31-1c-0.86,0.02-1.56,0.34-2.24,0.81c-0.79,0.56-1.32,1.3-1.32,2.31S480.9,279.68,481.68,280.24
				L481.68,280.24z"/>
		</g>
		<g>
			<path class="st4" d="M411.69,19.17c0.06,0,0.06-0.1,0-0.1C411.63,19.07,411.63,19.17,411.69,19.17L411.69,19.17z"/>
		</g>
		<g>
			<path class="st4" d="M331.66,492.35c-0.12-0.15-0.24-0.31-0.36-0.46c-0.22-0.24-0.48-0.41-0.78-0.5
				c-0.29-0.15-0.6-0.22-0.94-0.21c-0.22,0.03-0.43,0.06-0.65,0.09c-0.41,0.12-0.77,0.32-1.08,0.63c-0.12,0.15-0.24,0.31-0.36,0.46
				c-0.15,0.2-0.31,0.4-0.46,0.6c-0.1,0.24-0.2,0.47-0.3,0.71c-0.12,0.39-0.14,0.79-0.05,1.18c0,0.27,0.07,0.51,0.2,0.75
				c0.07,0.25,0.2,0.47,0.38,0.65c0.13,0.22,0.31,0.4,0.53,0.53c0.18,0.18,0.4,0.31,0.65,0.38c0.35,0.18,0.73,0.27,1.14,0.25
				c0.26-0.04,0.52-0.07,0.79-0.11c0.24-0.1,0.47-0.2,0.71-0.3c0.2-0.15,0.4-0.31,0.6-0.46c0.15-0.2,0.31-0.4,0.46-0.6
				c0.1-0.24,0.2-0.47,0.3-0.71c0.12-0.39,0.14-0.78,0.05-1.18c0-0.27-0.07-0.51-0.2-0.75
				C332.15,492.94,331.95,492.62,331.66,492.35L331.66,492.35z"/>
		</g>
		<g>
			<path class="st4" d="M122.19,299.8c1.45,0,1.45-2.25,0-2.25C120.74,297.55,120.74,299.8,122.19,299.8L122.19,299.8z"/>
		</g>
		<g>
			<path class="st4" d="M190.21,358.11c2.84,0,2.84-4.41,0-4.41C187.37,353.71,187.37,358.11,190.21,358.11L190.21,358.11z"/>
		</g>
		<g>
			<path class="st4" d="M34.25,390.12c4.52,0,4.53-7.03,0-7.03C29.73,383.09,29.72,390.12,34.25,390.12L34.25,390.12z"/>
		</g>
		<g>
			<path class="st4" d="M212.6,121.51c2.59,0,2.6-4.03,0-4.03C210.01,117.48,210.01,121.51,212.6,121.51L212.6,121.51z"/>
		</g>
		<g>
			<path class="st4" d="M401.74,18.24c3.14,0,3.14-4.88,0-4.88C398.6,13.36,398.6,18.24,401.74,18.24L401.74,18.24z"/>
		</g>
		<g>
			<path class="st4" d="M337.86,180.04c3.2,0,3.2-4.97,0-4.97C334.67,175.07,334.66,180.04,337.86,180.04L337.86,180.04z"/>
		</g>
	</g>
</g>
</svg>
